<svg width="25" height="26" viewBox="0 0 25 26" fill="none" xmlns="http://www.w3.org/2000/svg">
<rect y="0.5" width="25" height="25" rx="5" fill="#161616"/>
<path d="M18.7861 9.74431L17.7287 8.70942C17.5861 8.56989 17.4079 8.50012 17.2059 8.50012C17.004 8.50012 16.8257 8.56989 16.6832 8.70942L11.598 13.6862L9.32871 11.4536C9.18614 11.3141 9.00792 11.2443 8.80594 11.2443C8.60396 11.2443 8.42574 11.3141 8.28317 11.4536L7.22574 12.4885C7.07129 12.628 7 12.8024 7 13.0001C7 13.1978 7.07129 13.3722 7.21386 13.5117L10.0178 16.2559L11.0752 17.2908C11.2178 17.4304 11.396 17.5001 11.598 17.5001C11.8 17.5001 11.9782 17.4304 12.1208 17.2908L13.1782 16.2559L18.7861 10.7676C18.9287 10.628 19 10.4536 19 10.2559C19 10.0583 18.9287 9.88384 18.7861 9.74431Z" fill="white"/>
</svg>
