<svg width="121" height="26" viewBox="0 0 121 26" fill="none" xmlns="http://www.w3.org/2000/svg">
<g clip-path="url(#clip0_469_11751)">
<path d="M13.3322 26C20.2753 26 25.9038 20.3716 25.9038 13.4285C25.9038 6.48554 20.2753 0.857117 13.3322 0.857117C6.3892 0.857117 0.760742 6.48554 0.760742 13.4285C0.760742 20.3716 6.3892 26 13.3322 26Z" fill="#CE2457"/>
<path fill-rule="evenodd" clip-rule="evenodd" d="M12.7131 5.86766C8.8156 6.18639 5.75195 9.45053 5.75195 13.4302C5.75195 17.621 9.14929 21.0183 13.3401 21.0183C17.5308 21.0183 20.9282 17.621 20.9282 13.4302C20.9282 9.45006 17.8638 6.18567 13.9656 5.86755L13.7612 10.8516C15.0037 11.053 15.9524 12.1308 15.9524 13.4302C15.9524 14.873 14.7828 16.0426 13.3401 16.0426C11.8973 16.0426 10.7276 14.873 10.7276 13.4302C10.7276 12.1312 11.6757 11.0538 12.9176 10.8519L12.7131 5.86766Z" fill="white"/>
<path d="M13.3312 5.33596C14.2358 5.33596 14.9691 4.60267 14.9691 3.6981C14.9691 2.79354 14.2358 2.06024 13.3312 2.06024C12.4267 2.06024 11.6934 2.79354 11.6934 3.6981C11.6934 4.60267 12.4267 5.33596 13.3312 5.33596Z" fill="white"/>
<path d="M43.0257 13.4259C43.0257 15.1574 42.3924 16.5559 41.196 17.6881C39.9996 18.8203 38.5218 19.353 36.7624 19.353C35.003 19.353 33.5955 18.8203 32.3288 17.6881C31.2028 16.5559 30.5693 15.1574 30.5693 13.4259C30.5693 11.6944 31.2028 10.2959 32.3991 9.16375C33.5955 8.03162 35.0734 7.49884 36.7624 7.49884C38.4514 7.49884 39.9996 8.03162 41.196 9.16375C42.3924 10.2959 43.0257 11.6944 43.0257 13.4259ZM40.7034 13.4259C40.7034 12.427 40.3515 11.5612 39.5774 10.8952C38.8736 10.2293 37.8884 9.89627 36.7624 9.89627C35.6364 9.89627 34.7215 10.2293 33.9474 10.8952C33.1733 11.5612 32.8213 12.427 32.8213 13.4259C32.8213 14.4249 33.1733 15.2906 33.9474 15.9566C34.6511 16.6225 35.6364 16.9555 36.7624 16.9555C37.8884 16.9555 38.8736 16.6225 39.5774 15.9566C40.3515 15.2906 40.7034 14.4249 40.7034 13.4259Z" fill="#161616"/>
<path d="M50.4561 18.8215H47.8522V10.0974H43.8408V8.0329H54.397V10.0974H50.4561V18.8215Z" fill="#161616"/>
<path d="M60.2286 19.0903C58.3989 19.0903 56.9209 18.8239 55.7246 18.2911V16.1601C57.0617 16.7594 58.4692 17.0258 59.8767 17.0258C60.9323 17.0258 61.7065 16.8927 62.3399 16.6262C62.9028 16.3599 63.2547 15.9602 63.2547 15.4941C63.2547 14.5618 62.4103 14.1621 60.6509 14.1621H58.4692V12.2309H60.6509C62.1287 12.2309 62.8325 11.8313 62.8325 11.0322C62.8325 10.1664 61.8472 9.76677 59.9471 9.76677C58.6803 9.76677 57.4136 10.0332 56.0765 10.566V8.50147C57.2729 8.0353 58.7507 7.76892 60.5101 7.76892C61.9176 7.76892 63.114 8.0353 64.0992 8.56807C65.0141 9.10088 65.5068 9.8334 65.5068 10.6326C65.5068 11.8313 64.8734 12.6305 63.677 13.03C65.1548 13.4962 65.929 14.3619 65.929 15.6939C65.929 16.6928 65.4364 17.5585 64.3807 18.158C63.3251 18.8239 61.9176 19.0903 60.2286 19.0903Z" fill="#161616"/>
<path d="M80.1291 13.4259C80.1291 15.1574 79.4958 16.5559 78.2996 17.6881C77.1032 18.8203 75.6253 19.353 73.8659 19.353C72.1065 19.353 70.699 18.8203 69.4322 17.6881C68.2359 16.5559 67.6025 15.1574 67.6025 13.4259C67.6025 11.6944 68.2359 10.2959 69.4322 9.16375C70.699 8.03162 72.1769 7.49884 73.9363 7.49884C75.6956 7.49884 77.1736 8.03162 78.3699 9.16375C79.4958 10.2959 80.1291 11.6944 80.1291 13.4259ZM77.8772 13.4259C77.8772 12.427 77.5254 11.5612 76.7512 10.8952C76.0476 10.2293 75.0623 9.89627 73.9363 9.89627C72.8103 9.89627 71.8954 10.2293 71.1213 10.8952C70.3471 11.5612 69.9953 12.427 69.9953 13.4259C69.9953 14.4249 70.3471 15.2906 71.1213 15.9566C71.825 16.6225 72.8103 16.9555 73.9363 16.9555C75.0623 16.9555 76.0476 16.6225 76.7512 15.9566C77.455 15.2906 77.8772 14.4249 77.8772 13.4259Z" fill="#161616"/>
<path d="M89.2775 18.8215H82.4512V8.0329H88.9255C90.0514 8.0329 90.966 8.29929 91.67 8.76549C92.374 9.23165 92.6552 9.96418 92.6552 10.7633C92.6552 11.2961 92.5146 11.7623 92.2325 12.1619C91.9512 12.5614 91.5992 12.8944 91.1066 13.0942C92.6552 13.4938 93.4292 14.4262 93.4292 15.8913C93.4292 16.8236 93.0772 17.5561 92.3032 18.0889C91.5992 18.5551 90.614 18.8215 89.2775 18.8215ZM85.055 9.96418V12.3616H88.2922C88.8547 12.3616 89.2775 12.2284 89.6287 12.0287C89.9107 11.8289 90.1213 11.4959 90.1213 11.1629C90.1213 10.3638 89.5587 9.96418 88.3621 9.96418H85.055ZM85.055 14.2264V16.8902H88.7848C89.4181 16.8902 89.84 16.757 90.192 16.5573C90.544 16.2908 90.6847 16.0245 90.6847 15.5583C90.6847 15.1587 90.544 14.8257 90.192 14.5593C89.84 14.293 89.3474 14.2264 88.7848 14.2264H85.055Z" fill="#161616"/>
<path d="M98.2835 18.8154H95.8203V8.02673H98.4242V15.3523L104.829 8.02673H107.292V18.8154H104.688V11.4898L98.2835 18.8154Z" fill="#161616"/>
<path d="M112.604 18.8154H110V8.02673H112.604V18.8154Z" fill="#161616"/>
<path d="M115.35 13.2222L120.567 18.7497H117.199L112.246 13.3554L116.869 8.0943H120.105L115.35 13.2222Z" fill="#161616"/>
</g>
<defs>
<clipPath id="clip0_469_11751">
<rect width="121" height="25.1429" fill="white" transform="translate(0 0.857117)"/>
</clipPath>
</defs>
</svg>
