<svg width="121" height="35" viewBox="0 0 121 35" fill="none" xmlns="http://www.w3.org/2000/svg">
<g clip-path="url(#clip0_469_11775)">
<path d="M115.071 30.4755C117.444 30.4755 119.126 30.0463 120.379 29.1218V24.9284C119.093 25.8199 117.543 26.3812 115.367 26.3812C111.708 26.3812 110.191 23.5416 110.191 19.051C110.191 14.3293 112.037 11.9189 115.4 11.9189C117.378 11.9189 119.324 12.6123 120.346 13.2727V8.91421C119.258 8.31987 117.378 7.89062 114.807 7.89062C108.246 7.89062 104.85 12.6123 104.85 19.2161C104.883 26.4472 108.213 30.4755 115.071 30.4755ZM82.9907 28.5604V24.367C81.4082 25.4567 78.7046 26.4142 76.2319 26.4142C72.4733 26.4142 71.0556 24.6312 70.8248 20.9991H83.2215V18.2916C83.2215 10.7302 79.8915 7.89062 74.7812 7.89062C68.5169 7.89062 65.5496 12.6784 65.5496 19.2491C65.5496 26.8104 69.2752 30.4755 75.8033 30.4755C79.0673 30.4755 81.4741 29.584 82.9907 28.5604ZM35.9425 8.28685V16.8718H29.0847V8.28685H23.9414V30.0463H29.0847V20.9661H35.9425V30.0463H41.0858V8.28685H35.9425ZM64.2637 25.9519H61.9888V8.28685H47.0204V10.1359C47.0204 15.4519 46.6907 22.3199 44.8774 25.9519H43.2289V34.9991H47.9766V30.0463H59.4831V34.9991H64.2308V25.9519H64.2637ZM99.3768 30.0463H105.213L96.97 18.3246L104.223 8.28685H99.0471L91.7937 18.3246V8.28685H86.6504V30.0463H91.7937V19.3482L99.3768 30.0463ZM74.6493 11.9189C77.188 11.9189 77.9793 14.0321 77.9793 16.7727V17.2019H70.8248C70.9567 13.735 72.2095 11.9189 74.6493 11.9189ZM56.8455 25.9519H49.5921C51.0098 22.6831 51.4054 16.7397 51.4054 12.9755V12.3152H56.8455V25.9519Z" fill="#161616"/>
<path d="M19.9469 30.0472H14.7046V4.06132H12.3638C8.07766 4.06132 5.8357 6.20755 5.8357 9.41038C5.8357 13.0425 7.38529 14.7264 10.5834 16.8726L13.221 18.6557L5.63788 30.0472H0L6.8248 19.8774C2.90136 17.0708 0.692371 14.3302 0.692371 9.70755C0.692371 3.92925 4.71471 0 12.3308 0H19.9139L19.9469 30.0472Z" fill="#FC3F1D"/>
</g>
<defs>
<clipPath id="clip0_469_11775">
<rect width="121" height="35" fill="white"/>
</clipPath>
</defs>
</svg>
