<svg width="1809" height="1073" viewBox="0 0 1809 1073" fill="none" xmlns="http://www.w3.org/2000/svg">
<path fill-rule="evenodd" clip-rule="evenodd" d="M1809 558.122L1805.97 554.229C1803.95 551.634 1801.65 550.48 1798.62 550.48C1796.02 550.48 1792.13 548.894 1789.39 546.876C1786.8 544.857 1783.48 543.271 1782.18 543.271C1780.74 543.271 1778.29 541.973 1776.7 540.531C1774.97 538.945 1768.34 535.485 1761.85 532.601C1748.87 527.122 1743.11 523.661 1739.79 519.768C1738.64 518.326 1731.86 515.299 1724.94 512.992C1712.83 509.098 1697.98 501.024 1697.98 498.573C1697.98 497.852 1693.79 492.805 1688.6 487.182C1682.55 480.549 1679.23 475.647 1679.23 473.484C1679.23 471.61 1678.22 469.303 1677.07 468.293C1675.91 467.284 1674.91 465.265 1674.91 463.679C1674.91 459.642 1670.58 453.875 1667.55 453.875C1665.68 453.875 1664.81 452.865 1664.81 450.414C1664.81 448.395 1665.53 446.377 1666.4 445.8C1667.26 445.223 1667.55 443.06 1667.12 440.465C1666.54 437.726 1666.98 435.274 1668.27 433.832C1670 431.814 1669.86 429.795 1667.12 418.404C1665.24 411.195 1662.07 402.832 1660.05 399.66C1657.89 396.632 1656.16 393.027 1656.16 391.73C1656.16 387.837 1645.92 359.576 1643.62 356.98C1642.18 355.394 1641.74 352.943 1642.18 350.492C1642.35 349.611 1642.58 348.396 1642.82 347.079C1643.17 345.162 1643.56 343.032 1643.91 341.408C1644.77 337.227 1644.19 335.208 1641.02 330.306C1638.86 326.989 1635.54 323.961 1633.52 323.385C1628.62 322.231 1615.79 309.11 1615.79 305.361C1615.79 300.603 1612.33 302.766 1611.32 308.101C1610.45 312.282 1611.03 313.436 1616.37 318.338C1619.54 321.51 1623.72 324.106 1625.59 324.106C1628.19 324.106 1628.77 324.971 1628.77 328.431C1628.77 331.315 1628.04 332.757 1626.6 332.757C1624.15 332.757 1623.72 334.343 1625.74 336.506C1626.89 337.659 1627.47 340.976 1629.63 359.287C1630.21 363.325 1629.77 368.948 1628.77 372.264L1626.89 378.176L1624.3 372.408C1621.99 367.074 1621.7 366.929 1621.7 370.534C1621.56 372.841 1620.98 374.571 1620.26 374.571C1618.53 374.571 1607.14 362.027 1607.14 360.153C1607.14 357.125 1604.83 358.855 1603.24 363.18C1601.95 366.641 1600.79 367.506 1598.63 366.929C1596.32 366.353 1595.6 367.362 1594.02 372.985C1593.15 376.59 1591.42 380.627 1590.27 381.925C1587.24 385.53 1587.82 394.469 1591.28 396.488C1593.3 397.786 1594.16 399.948 1594.16 403.409C1594.16 406.293 1595.03 409.753 1596.18 411.339C1597.19 412.925 1598.49 419.125 1599.06 425.037C1599.78 432.823 1600.79 436.572 1602.81 438.735C1604.4 440.465 1605.7 442.772 1605.7 444.07C1605.7 448.395 1609.01 449.549 1612.9 446.665C1614.92 445.079 1618.24 443.781 1620.26 443.781C1623.57 443.781 1624.01 444.214 1623.29 447.674C1622.85 449.982 1621.7 452.289 1620.69 453.154C1619.68 453.875 1618.67 456.182 1618.38 458.2C1618.1 460.94 1616.94 461.949 1614.06 462.237C1610.31 462.67 1610.17 462.958 1611.03 469.303C1611.75 474.782 1611.46 476.224 1609.01 478.242C1607.43 479.54 1605.41 483.289 1604.4 486.605C1602.96 491.796 1602.09 492.805 1599.06 492.805C1594.3 492.805 1591.28 489.633 1591.28 485.019C1591.28 483 1590.99 481.27 1590.7 481.27C1588.97 481.27 1576.86 488.912 1576.86 490.066C1576.86 490.787 1574.7 492.229 1571.96 493.382C1565.61 496.122 1564.17 500.591 1567.92 505.782L1570.95 509.819L1567.77 512.703C1566.04 514.145 1563.74 515.154 1562.58 514.722C1561.29 514.289 1561 514.722 1561.72 515.875C1563.02 518.038 1554.22 527.41 1550.9 527.41C1547.16 527.41 1546.43 529.141 1548.74 532.601C1550.76 535.773 1550.76 536.062 1546.72 538.224C1544.27 539.378 1541.1 540.387 1539.66 540.387C1537.06 540.387 1529.85 547.597 1520.48 559.42C1511.69 570.522 1510.1 578.02 1514.42 587.104C1516.73 592.006 1516.73 592.439 1513.99 595.323C1510.24 599.504 1510.39 608.732 1514.42 612.769C1517.16 615.509 1517.31 616.23 1515.72 619.546C1513.13 624.737 1511.4 656.891 1513.56 659.486C1516.15 662.658 1513.13 694.236 1509.81 699.715C1507.36 703.752 1505.77 718.747 1507.79 719.901C1508.51 720.478 1510.39 719.901 1511.83 718.603C1513.27 717.306 1515.29 716.296 1516.44 716.296C1517.74 716.296 1520.48 714.278 1522.79 711.971C1525.09 709.664 1527.4 707.645 1527.98 707.645C1528.55 707.645 1530 709.808 1531.29 712.259C1534.61 719.324 1540.67 726.245 1540.81 723.217C1540.81 721.92 1540.23 720.333 1539.37 719.901C1537.21 718.603 1537.64 712.547 1539.95 710.673C1541.53 709.375 1542.83 709.952 1546.43 713.412C1548.89 716.008 1550.9 719.18 1550.9 720.766C1550.9 724.515 1552.78 724.227 1554.51 720.333C1555.37 718.459 1557.39 716.873 1559.27 716.585C1563.3 716.008 1563.3 715.575 1558.11 705.915L1553.79 697.984L1559.84 693.803C1564.6 690.775 1568.21 689.622 1575.13 689.189C1580.75 688.756 1584.93 689.189 1585.94 690.198C1587.96 692.217 1594.16 692.217 1599.06 690.342C1601.95 689.333 1602.96 687.603 1603.68 683.133C1604.54 678.231 1605.12 677.366 1608.15 677.366H1611.61L1607.71 672.319C1605.26 669.147 1602.67 667.272 1600.5 667.272C1597.77 667.272 1597.04 666.263 1596.18 662.226C1595.75 659.342 1595.6 656.603 1596.18 656.17C1598.05 654.296 1608.15 658.765 1611.17 662.947C1613.05 665.254 1615.64 667.272 1617.09 667.272C1618.53 667.272 1620.84 668.858 1622.13 670.877C1623.43 672.752 1626.46 674.914 1629.05 675.635C1632.51 676.5 1634.53 678.375 1636.98 683.133C1641.45 691.64 1649.67 700.003 1654.58 700.868C1656.59 701.301 1660.63 703.319 1663.37 705.338C1666.11 707.357 1670.72 710.24 1673.61 711.826C1676.64 713.413 1680.1 715.864 1681.54 717.306C1684.28 720.189 1694.52 726.389 1702.59 730.282C1705.76 731.724 1708.07 733.887 1708.07 735.329C1708.07 737.924 1701.58 743.692 1698.55 743.692C1695.09 743.692 1696.1 753.352 1700.14 759.264C1702.16 762.148 1703.74 766.618 1703.74 769.213C1703.74 772.818 1705.04 774.836 1709.8 778.874C1713.55 782.19 1717.3 784.064 1719.75 784.064C1721.91 784.064 1724.22 784.641 1724.65 785.506C1725.08 786.227 1726.67 786.948 1728.11 786.948C1729.55 786.948 1731.72 788.39 1733.01 790.12C1734.74 792.86 1735.61 793.148 1737.05 791.562C1739.93 788.823 1743.39 789.399 1748.3 793.581C1755.07 799.204 1754.35 805.116 1747.29 802.665C1741.81 800.79 1734.89 802.953 1734.31 806.702C1734.02 808.288 1735.61 812.181 1737.63 815.209C1741.66 821.265 1741.81 824.005 1738.06 826.456C1735.9 827.753 1734.02 826.6 1726.81 819.39C1722.05 814.632 1718.16 809.73 1718.16 808.576C1718.16 807.279 1716.14 804.395 1713.69 801.944C1711.24 799.637 1707.06 794.158 1704.32 789.688C1700.57 783.776 1697.25 780.46 1692.06 777.576C1687.88 775.413 1684.13 772.097 1683.12 769.934C1680.53 763.878 1675.19 756.813 1663.95 744.845C1658.18 738.789 1652.56 731.869 1651.26 729.562C1649.82 726.678 1646.5 724.227 1640.3 721.631C1627.76 716.152 1627.61 716.152 1629.05 726.389C1630.64 738.213 1632.8 742.971 1641.89 753.352C1652.56 765.464 1658.61 773.827 1661.21 780.171C1662.36 783.055 1665.39 787.669 1667.84 790.409C1672.17 795.455 1672.31 795.888 1672.02 808.865C1671.73 825.014 1673.75 840.442 1677.65 853.707C1682.4 869.856 1684.13 885.284 1682.26 893.215C1681.11 897.396 1680.53 912.536 1680.53 933.155C1680.53 962.857 1680.24 966.606 1677.93 969.922C1676.49 971.941 1673.18 977.997 1670.58 983.476C1667.12 990.253 1664.96 993.137 1663.08 993.137C1661.64 993.137 1657.6 994.434 1654.43 996.02C1647.51 999.337 1644.48 999.625 1642.03 997.174C1640.73 995.876 1640.3 996.021 1640.3 997.751C1640.3 1001.07 1637.71 1002.36 1635.25 1000.35C1633.67 999.048 1633.24 1000.35 1632.66 1007.12C1631.07 1025 1629.05 1028.9 1622.42 1026.3C1618.1 1024.71 1617.66 1021.4 1620.84 1013.76C1624.44 1005.25 1623.57 1001.21 1616.94 993.281C1613.48 989.388 1609.44 984.053 1607.86 981.313C1606.27 978.718 1603.1 975.69 1600.94 974.681C1595.75 972.229 1595.6 966.174 1600.65 961.415C1602.67 959.541 1604.25 956.513 1604.25 954.783C1604.25 950.601 1610.6 945.555 1615.93 945.555C1621.41 945.555 1625.02 940.508 1622.57 936.327C1621.7 934.597 1620.84 930.703 1620.69 927.531C1620.26 919.601 1618.67 912.103 1616.65 909.652C1615.79 908.499 1614.92 905.903 1614.92 903.885C1614.64 898.838 1611.17 890.043 1608 886.582C1605.41 883.698 1605.55 882.112 1608.87 877.498C1610.31 875.479 1609.59 874.182 1604.83 868.847C1596.76 859.907 1595.89 860.196 1586.09 877.066C1582.34 883.41 1581.18 886.726 1581.76 889.61C1582.48 893.215 1581.62 894.224 1574.98 898.694C1570.95 901.433 1566.76 903.74 1565.9 903.74C1564.89 903.74 1563.88 905.038 1563.45 906.624C1562.44 910.373 1556.82 910.373 1549.46 906.624C1545.42 904.605 1543.69 902.731 1543.69 900.568C1543.69 896.819 1536.92 889.322 1533.6 889.322C1532.3 889.322 1530.57 890.043 1529.71 890.908C1528.56 892.061 1526.54 892.061 1522.64 890.908C1515.58 888.889 1499.43 888.889 1498.28 890.763C1497.7 891.628 1494.96 893.215 1492.22 894.368C1485.15 897.396 1477.95 895.81 1474.92 890.908C1470.74 884.419 1458.62 873.749 1454.3 872.74C1451.41 872.163 1449.68 870.721 1449.11 868.414C1448.24 864.81 1438.73 856.447 1432.38 853.707C1430.22 852.698 1428.34 851.112 1428.34 849.958C1428.34 848.949 1425.61 846.209 1422.29 844.047C1416.67 840.442 1415.37 840.154 1406.72 840.874C1401.53 841.451 1394.17 842.028 1390.13 842.316C1375.86 843.47 1369.52 845.488 1362.45 851.256C1358.7 854.428 1353.08 858.61 1349.76 860.628C1345 863.656 1343.56 865.819 1341.4 872.307C1338.37 882.256 1338.37 882.545 1341.83 880.382C1344.28 878.796 1345.29 879.228 1349.04 882.833C1354.38 887.88 1357.12 896.963 1354.95 901.866C1354.09 903.596 1353.08 909.508 1352.65 914.843C1352.07 920.322 1351.06 926.378 1350.19 928.685C1348.9 932.001 1349.19 933.443 1352.5 938.345C1357.55 945.843 1357.55 952.332 1352.65 954.206C1350.48 955.071 1348.03 957.667 1346.88 960.406C1342.7 970.355 1333.32 974.536 1319.05 972.95C1310.83 971.941 1309.39 972.085 1302.61 975.834L1295.26 979.871L1289.49 977.276C1284.3 974.969 1283.15 974.825 1279.83 976.555C1274.5 979.295 1265.41 989.676 1265.41 992.993C1265.41 996.309 1255.18 1005.54 1248.11 1008.42C1245.37 1009.57 1240.47 1013.03 1237.3 1016.06C1235.63 1017.69 1234.43 1018.87 1233.06 1019.78C1229.31 1022.26 1224.25 1022.75 1204.85 1024.86C1188.85 1026.44 1183.8 1025.29 1179.04 1019.09C1176.3 1015.2 1175.15 1014.76 1167.65 1014.62C1163.18 1014.62 1157.13 1013.9 1154.39 1012.89C1147.18 1010.44 1129.88 1013.03 1125.26 1017.07C1121.8 1020.24 1110.27 1023.42 1102.05 1023.42C1094.84 1023.27 1085.47 1018.37 1082.58 1013.18C1075.52 999.914 1067.73 995.732 1056.34 998.616C1051.58 999.769 1050.28 999.625 1048.27 997.318C1046.68 995.444 1043.8 994.579 1039.9 994.579C1036.59 994.579 1032.41 993.569 1030.53 992.272C1027.5 990.109 1027.07 990.109 1023.03 994.002C1020.73 996.165 1018.85 998.616 1018.85 999.481C1018.85 1000.2 1017.7 1002.22 1016.11 1003.81C1012.36 1008.13 1011.21 1014.04 1013.8 1016.21C1014.96 1017.22 1015.97 1019.81 1015.97 1021.97C1015.97 1024.14 1016.98 1026.73 1018.13 1027.74C1019.28 1028.75 1020.29 1031.63 1020.29 1034.09C1020.29 1037.69 1018.85 1039.71 1013.08 1044.76L1005.73 1051.1L989.293 1050.24C967.953 1049.23 962.618 1047.78 953.967 1040C946.181 1033.08 944.595 1032.64 938.971 1035.1C935.799 1036.54 934.79 1036.25 930.897 1032.93C925.706 1028.61 924.697 1028.46 922.246 1031.35C921.236 1032.5 918.785 1033.51 916.911 1033.51C914.604 1033.51 913.018 1034.52 912.585 1036.39C912.008 1038.41 910.566 1039.28 907.971 1039.28C903.934 1039.28 892.687 1045.62 889.227 1049.8C888.217 1051.1 886.055 1052.25 884.613 1052.25C883.027 1052.25 881.873 1053.26 881.873 1054.56C881.873 1055.71 879.71 1057.59 877.115 1058.74C874.375 1059.9 871.492 1061.77 870.338 1062.92C869.329 1064.37 866.301 1065.23 862.696 1065.23C858.659 1065.23 855.487 1066.38 852.17 1068.84C845.105 1074.31 838.761 1072.87 834.291 1064.8C832.417 1061.48 830.831 1058.6 830.686 1058.31C830.398 1058.02 827.803 1058.89 824.775 1060.18C819.584 1062.2 818.43 1062.2 811.221 1059.9C805.021 1057.88 803.147 1056.58 802.858 1054.13C802.57 1052.4 799.253 1047.64 795.36 1043.6C791.467 1039.57 788.151 1034.95 787.863 1033.22C787.43 1029.9 776.039 1020.82 772.146 1020.68C770.849 1020.53 768.974 1021.4 768.109 1022.55C765.802 1025.29 757.872 1026.73 755.565 1024.71C754.411 1023.85 752.248 1023.42 750.662 1023.85C746.625 1024.86 739.127 1018.37 739.127 1013.9C739.127 1009.29 734.369 1009.29 732.206 1013.9C730.332 1018.08 724.132 1019.52 721.248 1016.35C719.085 1013.9 714.615 1001.64 714.615 998.183C714.615 997.03 713.318 994.002 711.732 991.406C710.145 988.811 708.848 984.918 708.848 982.899C708.848 980.737 707.838 978.285 706.685 977.276C705.531 976.267 704.522 973.095 704.522 970.067C704.522 962.569 701.927 955.792 696.736 949.736C694.285 946.852 691.113 942.527 689.815 940.076C688.517 937.48 685.634 934.741 683.615 934.02C678.568 932.145 678.568 925.801 683.615 923.927C685.634 923.206 687.22 922.052 687.22 921.331C687.22 918.448 685.201 918.447 681.74 921.043C679.722 922.773 675.973 923.927 672.801 923.927C669.34 923.927 666.601 924.936 664.871 926.81C663.429 928.396 661.41 929.694 660.401 929.694C659.391 929.694 656.219 930.848 653.336 932.145C649.442 934.02 647.568 934.164 645.694 933.155C644.396 932.289 640.935 931.857 638.052 932.289C635.168 932.578 632.428 932.289 631.996 931.568C630.266 928.973 633.005 922.196 636.321 920.61L639.782 919.024L635.168 917.15C631.996 915.852 629.977 915.708 628.824 916.717C627.526 917.727 625.796 917.727 623.056 916.717C619.74 915.419 619.307 914.699 620.028 911.526C621.326 906.624 620.028 904.75 616.423 906.768C611.954 909.075 605.177 907.057 604.167 902.875C603.735 901.001 603.879 898.55 604.6 897.54C606.474 895.233 607.916 886.005 606.907 882.256C606.474 880.238 604.456 878.94 601.14 878.363C598.4 877.787 595.805 876.489 595.372 875.48C594.939 874.326 592.921 873.461 590.758 873.461C588.739 873.461 585.711 872.452 584.27 871.298C580.809 868.703 577.349 868.558 575.042 870.865C572.59 873.317 558.027 876.056 555.72 874.614C554.711 874.038 550.097 873.461 545.627 873.461C541.157 873.461 535.678 872.74 533.66 871.731C530.92 870.433 529.19 870.577 526.594 871.875C522.413 874.182 518.232 874.182 509.869 872.019C506.264 871.01 497.324 870 489.827 869.568C478.724 868.991 475.552 868.27 471.371 865.386C465.747 861.638 460.989 860.917 460.701 863.656C459.691 873.749 460.124 875.768 464.305 880.238C468.487 884.852 468.487 884.996 465.891 887.88C462.575 891.629 459.115 891.484 455.798 887.88C453.924 885.861 451.617 884.996 448.733 885.284C444.696 885.717 444.263 886.149 443.975 891.34C443.831 898.117 440.803 901.289 435.035 901.145C428.835 901.001 428.547 904.173 434.17 911.094C436.91 914.266 439.217 917.871 439.217 918.88C439.217 919.889 440.226 921.475 441.38 922.485C444.407 924.936 444.263 925.513 438.64 931.568C434.314 936.327 433.017 936.903 426.384 936.903C420.04 936.903 418.742 936.327 415.858 932.578C413.695 929.694 412.254 928.685 411.244 929.694C410.523 930.415 407.784 931.136 405.188 931.136C401.295 931.136 399.709 929.982 395.384 923.927C392.5 919.889 390.193 915.131 390.193 913.257C390.193 907.922 386.732 905.903 380.676 907.778C376.207 909.075 375.486 908.931 373.9 906.48C372.89 904.894 370.151 902.298 367.555 900.712C363.807 898.405 362.365 898.117 359.913 899.415C354.723 902.154 345.206 901.866 343.476 898.838C342.611 897.396 340.737 894.801 339.295 893.07C336.988 890.187 336.699 890.187 335.402 892.494C333.383 895.666 328.336 895.81 327.183 892.782C326.75 891.629 327.183 889.177 328.048 887.303C329.49 884.708 329.201 882.256 326.318 873.461C323.29 864.089 322.136 862.214 317.666 859.763C314.639 858.177 312.332 856.158 312.332 855.293C312.332 852.121 307.573 849.67 301.662 849.67C296.038 849.67 295.75 849.382 295.029 844.768C294.164 838.423 290.415 835.972 286.81 839.144C282.773 842.749 278.159 843.47 272.68 841.595C268.498 840.009 267.345 840.154 265.182 842.028C263.74 843.326 259.703 844.623 256.242 844.912C250.619 845.344 249.754 845.921 246.726 851.112C243.987 856.014 242.977 856.879 239.373 856.447C232.163 855.582 229.712 852.121 230.577 844.191C231.298 838.712 231.01 837.414 229.135 837.414C227.982 837.414 225.675 839 224.089 841.019C222.503 843.037 219.763 844.623 218.033 844.623C214.284 844.623 207.074 851.544 207.074 855.149C207.074 857.889 202.893 860.484 198.567 860.484C196.981 860.484 193.953 861.926 191.935 863.8L188.042 866.972L191.358 871.154C194.242 874.903 194.386 875.912 192.944 881.247C191.502 886.87 191.646 887.303 196.116 892.205C200.586 896.963 201.019 898.117 201.884 910.229C202.605 920.466 202.316 923.927 200.73 926.089C198.856 928.541 198.135 928.685 195.684 927.099C191.646 924.648 191.502 927.964 195.539 933.01C199 937.336 199 937.48 196.116 940.364C192.656 943.825 171.748 943.536 165.981 939.931L161.511 937.336L156.032 942.815C151.274 947.429 149.111 948.294 141.902 949.159C132.385 950.313 130.222 952.62 134.26 957.09C136.278 959.397 136.711 961.415 135.99 967.327C135.413 971.509 134.115 975.834 132.818 977.276C131.664 978.574 130.655 980.448 130.655 981.313C130.655 982.323 130.078 983.044 129.501 983.044C128.781 983.044 126.762 985.639 125.032 988.955C122.292 993.714 121.715 996.453 122.148 1005.1C123.013 1025.15 122.292 1030.34 118.832 1032.21C115.083 1034.23 100.808 1035.1 96.7708 1033.51C94.608 1032.64 93.1661 1029.62 91.1475 1020.82C89.5614 1014.33 87.5428 1008.85 86.3893 1008.42C85.38 1007.99 84.5149 1006.11 84.5149 1004.38C84.5149 1002.51 83.073 998.76 81.4869 996.02C78.7474 991.695 78.6032 990.397 80.1892 986.216C81.6311 982.178 81.4869 981.025 79.6125 978.862C78.3148 977.42 77.3055 975.546 77.3055 974.681C77.3055 973.671 76.4404 972.95 75.2868 972.95C74.2775 972.95 72.2589 971.364 70.9612 969.346C69.6635 967.327 66.7798 965.308 64.617 964.876C58.7053 963.434 55.6773 960.118 55.6773 954.927C55.6773 952.332 54.668 949.448 53.5145 948.438C52.361 947.429 51.3517 945.555 51.3517 944.113C51.3517 939.931 44.1423 930.127 38.0864 926.089C35.0585 924.071 32.6073 921.62 32.6073 920.61C32.6073 915.42 19.1978 896.531 15.4489 896.531C12.421 896.531 10.9791 890.763 10.9791 878.94C10.9791 869.712 10.2582 865.531 8.09537 861.205C6.5093 858.033 5.21161 853.707 5.21161 851.4C5.21161 849.093 3.91392 845.633 2.47204 843.758C-0.700087 839.577 -0.844275 827.609 2.18367 823.86C4.92323 820.688 9.39305 820.977 12.2768 824.725L14.8722 827.898L18.9094 824.725C21.9374 822.274 24.8211 821.553 30.7328 821.553H38.519L37.5097 815.065C36.3562 807.279 39.0957 805.404 45.1516 809.297C47.1702 810.739 51.7843 812.037 55.3889 812.325C58.9936 812.614 63.3193 813.19 64.9053 813.623C66.3796 814.044 67.1361 814.26 67.208 814.122C67.2838 813.975 66.5994 813.435 65.1937 812.325C63.6076 811.028 61.589 810.018 60.8681 810.018C57.8401 809.874 52.5052 804.251 53.3703 802.088C54.9564 797.906 62.7425 794.446 69.6635 794.879C74.9985 795.311 77.1613 796.32 81.6311 800.646L87.2544 806.125L91.5801 802.665C94.3196 800.502 95.9057 797.762 95.9057 795.599C96.0499 790.409 104.701 782.623 110.18 782.623C114.938 782.623 117.822 777.864 114.938 774.981C114.073 774.116 113.352 771.953 113.352 770.222C113.352 768.492 112.343 766.329 111.19 765.32C110.036 764.311 109.027 762.581 109.027 761.571C109.027 760.418 106.576 756.957 103.692 753.641C98.9336 748.45 98.5011 747.008 98.7895 740.808C99.0778 734.176 98.7895 733.743 92.5894 728.552C88.9847 725.668 85.6684 721.92 85.0916 720.189C84.5149 718.459 82.9288 716.296 81.6311 715.287C77.4497 712.403 77.3055 708.222 81.0544 703.175C85.5242 697.119 85.38 692.794 80.9102 685.008C77.738 679.817 77.4497 678.663 79.3241 677.942C80.4776 677.51 81.9195 676.068 82.3521 674.626C82.6404 673.328 84.5149 671.598 86.2451 670.877C93.4545 667.705 92.301 651.268 84.8032 650.258C82.9288 649.97 80.766 648.528 79.7567 647.086C78.7474 645.212 77.1613 644.491 74.9985 645.068C72.6915 645.644 71.1054 644.779 68.7984 641.463C65.1937 636.416 65.9146 633.677 73.2682 625.891C75.7194 623.439 78.459 619.835 79.3241 617.96C81.9195 612.769 86.9661 612.914 89.994 618.249C92.4452 622.718 98.2127 625.458 100.376 623.151C102.971 620.411 103.548 611.616 101.241 609.742C99.7988 608.588 99.5104 607.146 100.231 605.56C100.952 604.118 103.259 597.486 105.566 590.565C108.45 581.625 110.469 577.588 112.343 577.011C116.669 575.569 123.301 567.35 123.446 563.313C123.446 559.276 120.273 555.671 115.227 554.229C112.487 553.364 112.199 552.787 113.641 548.894C114.938 545.145 114.65 543.559 112.055 538.945C108.017 531.736 108.162 530.15 113.929 523.373C117.101 519.336 118.543 516.452 118.111 514.145C117.678 511.406 118.687 510.396 123.446 508.233C127.483 506.359 129.213 504.629 129.213 502.466C129.213 498.429 133.25 494.247 137.432 494.247C140.027 494.247 141.325 493.094 142.334 489.921C143.199 487.47 144.785 485.596 145.939 485.596C147.092 485.596 149.544 483.721 151.706 481.414C155.311 477.377 159.925 475.791 170.307 475.07C172.758 474.926 175.93 473.34 177.516 471.465C180.111 468.438 180.832 468.293 184.437 469.879C186.6 470.889 188.33 472.186 188.33 472.763C188.33 473.484 190.637 474.926 193.377 476.079C196.405 477.377 199.144 479.828 200.153 482.28L201.884 486.317L202.46 482.856C202.893 480.405 202.028 478.531 199.865 476.945C197.27 474.926 196.837 473.34 197.126 467.14C197.414 461.084 196.981 459.065 194.386 456.326C192.656 454.451 191.214 452.721 191.214 452.289C191.214 452 207.219 451.423 226.972 451.135C269.652 450.558 271.959 449.982 271.959 440.609C271.959 437.149 272.392 430.949 272.824 426.767C273.4 422.492 273.647 420.655 274.689 419.865C275.474 419.27 276.711 419.27 278.88 419.27C285.08 419.27 289.261 415.809 289.261 410.618C289.261 408.311 290.271 406.293 291.424 405.716C292.722 405.283 293.587 402.976 293.587 399.804C293.587 395.911 294.164 394.758 296.182 394.758C297.624 394.758 301.517 392.739 304.834 390.288C308.15 387.837 311.899 386.251 313.052 386.683C314.494 387.116 316.657 384.664 320.262 378.32C323.001 373.274 325.308 368.227 325.308 366.929C325.308 365.487 327.615 361.883 330.499 358.711C335.402 353.376 336.267 352.943 343.476 352.943C350.541 352.943 351.406 352.655 353.425 348.618C354.579 346.311 355.588 340.976 355.588 336.794V329.008L366.546 323.673C377.216 318.338 377.793 318.194 385.002 319.78C389.039 320.789 393.509 322.087 394.951 322.808C396.681 323.673 398.556 323.385 401.151 321.799C404.756 319.347 404.756 319.347 403.747 323.096C402.881 326.701 403.314 326.989 406.919 326.989C412.975 326.989 414.128 328.431 415.282 336.073C416.291 342.706 416.291 342.994 413.407 341.552C411.821 340.687 410.091 339.245 409.658 338.524C407.784 335.352 406.198 337.371 406.919 341.697C407.495 344.436 409.658 348.041 411.965 350.059C414.272 352.078 416.147 355.106 416.147 356.692C416.147 358.422 417.156 360.153 418.31 360.729C419.463 361.162 420.472 363.036 420.472 364.911C420.472 366.929 421.914 370.246 423.644 372.553C426.528 376.013 426.961 378.609 427.105 389.423C427.393 404.851 428.691 411.916 431.575 415.232C436.91 421.144 430.998 442.051 421.626 450.414C416.435 455.172 400.142 456.182 391.635 452.289C380.532 447.242 375.774 442.772 375.774 437.437C375.774 434.698 374.765 431.67 373.467 430.66C370.439 428.209 361.788 409.321 360.49 402.688C360.058 399.948 358.76 397.641 357.751 397.641C355.444 397.641 354.002 406.437 355.876 408.744C359.193 412.925 352.272 429.363 347.225 429.363C343.332 429.363 338.718 435.13 337.564 441.186C336.988 444.07 335.402 447.53 333.96 448.828C331.508 450.991 331.508 451.712 333.527 457.768C335.402 463.103 335.402 464.833 333.815 467.717C332.085 471.033 332.374 471.754 337.132 476.368C341.746 481.126 342.467 481.414 345.35 479.684C348.523 477.666 349.532 472.042 346.937 470.456C346.071 470.024 345.495 466.563 345.495 462.958C345.495 455.028 349.676 449.549 355.588 449.549C359.193 449.549 359.481 449.982 361.067 460.507C362.22 467.861 363.951 472.763 366.114 475.503C367.844 477.666 370.007 480.405 370.728 481.703C371.593 483.001 373.467 484.154 375.053 484.442C377.216 484.731 377.793 484.154 377.504 481.847C377.36 480.117 378.081 477.954 379.379 476.945C380.677 475.935 381.542 472.763 381.542 469.591V463.968L388.463 464.112C392.356 464.256 396.681 463.679 398.123 462.814C400.142 461.805 402.016 461.805 404.9 463.391C408.216 465.121 409.947 465.121 415.57 463.679C421.914 461.949 422.347 461.949 425.375 465.41C426.961 467.428 429.412 470.6 430.565 472.331C434.891 478.963 446.426 471.898 446.426 462.67C446.426 457.912 449.31 452.865 453.059 451.135C454.933 450.27 456.519 448.684 456.519 447.386C456.519 446.233 458.25 444.214 460.268 442.772C463.729 440.609 464.017 439.744 463.44 432.679C462.719 425.181 462.863 425.037 466.468 425.037C470.217 425.037 474.254 429.074 482.329 440.609C485.068 444.647 485.645 446.665 485.068 452.721C484.492 457.335 483.338 460.94 481.32 462.958L478.147 465.986L474.687 462.67C471.803 459.93 470.217 459.498 466.036 460.219C460.412 461.372 460.268 461.805 461.71 473.052C462.575 478.963 463.152 479.684 468.343 481.847C474.975 484.442 479.589 483 479.589 478.386C479.589 476.368 480.887 475.359 484.636 474.638C487.375 474.205 490.692 474.061 491.845 474.638C492.999 475.07 494.008 474.782 494.008 474.205C494.008 473.052 502.803 473.196 526.018 474.493C529.478 474.782 532.218 475.935 533.516 477.666C535.39 480.117 535.678 480.117 535.823 478.098C535.823 475.503 542.744 472.619 548.944 472.619C553.558 472.619 553.846 473.052 555.288 479.54C556.153 483.721 556.009 484.154 552.692 484.154C550.241 484.154 548.944 485.163 548.367 487.326C547.069 491.94 548.511 493.238 553.702 492.084C567.255 489.201 569.851 489.489 574.897 493.959C579.656 497.996 580.377 498.284 586.721 496.987C590.614 496.266 594.363 495.401 595.084 494.824C596.958 493.815 602.149 498.284 602.149 501.024C602.149 502.033 600.851 504.052 599.265 505.35C596.237 507.945 595.372 511.55 597.679 511.55C598.4 511.55 599.265 510.54 599.842 509.387C600.274 508.233 602.293 507.224 604.312 507.224C606.619 507.224 607.916 506.359 607.916 505.061C607.916 503.908 609.214 502.898 610.8 502.898C613.396 502.898 613.684 501.889 613.684 494.968C613.684 490.642 614.405 487.038 615.126 487.038C615.991 487.038 616.568 486.317 616.568 485.596C616.568 484.731 615.27 484.154 613.684 484.154C612.098 484.154 610.8 483.577 610.8 482.856C610.8 482.135 609.935 480.549 608.781 479.396C607.628 478.242 606.33 474.493 605.754 471.033C604.888 464.977 605.033 464.4 608.637 462.814C610.656 461.805 613.251 461.084 614.261 461.084C616.423 461.084 619.451 467.14 619.451 471.61C619.451 473.34 620.028 475.791 620.749 476.8C621.614 478.098 621.614 479.973 620.605 481.703C619.307 484.298 619.596 484.442 622.768 483.577C625.075 483 626.949 483.433 628.103 484.875C629.112 486.028 630.698 486.894 631.707 486.749C633.726 486.317 653.191 506.936 657.373 513.857C658.67 516.164 663.14 522.22 667.033 527.266C671.071 532.313 674.243 537.792 674.243 539.522C674.243 543.559 676.406 546.731 678.424 545.578C679.289 545.001 680.01 542.983 680.01 541.108C680.01 539.234 681.02 537.071 682.317 536.35C684.336 535.196 684.192 534.62 681.596 530.15C679.434 526.689 678.857 523.95 679.433 520.633C680.154 517.029 679.722 515.731 677.992 515.01C676.694 514.433 674.531 512.126 673.233 509.675C671.071 505.205 671.071 505.061 675.54 501.457C677.992 499.294 680.01 496.698 680.01 495.545C680.154 494.391 681.02 490.931 682.173 487.903C683.903 483 683.903 481.991 682.173 480.693C680.443 479.396 680.443 478.242 682.75 473.34C684.624 469.014 686.643 467.14 690.536 465.698C699.331 462.526 704.522 456.902 710.29 444.502C713.462 437.581 717.211 431.814 719.229 430.516C722.69 428.209 723.122 428.209 725.429 430.805C726.871 432.391 729.467 433.688 731.341 433.688C733.216 433.688 735.09 434.265 735.523 435.13C735.955 435.851 738.262 436.572 740.425 436.572C744.03 436.572 744.75 437.293 746.337 443.06C747.634 447.53 747.634 450.126 746.625 451.279C745.904 452.288 744.75 455.461 744.174 458.2C743.597 460.94 741.29 465.121 739.127 467.572C733.648 473.484 732.495 477.954 735.523 481.27C737.541 483.577 737.685 485.019 736.243 492.949C735.378 497.852 733.071 504.196 731.053 507.08C729.178 509.964 727.592 514.001 727.592 516.019C727.592 518.182 726.295 524.094 724.708 529.141C720.96 540.964 721.104 545.001 725.285 548.894C729.322 552.787 728.746 558.266 723.843 561.439C721.536 563.025 720.383 565.332 720.094 568.936C719.662 573.55 718.941 574.704 714.183 576.867C711.155 578.309 706.685 582.202 704.09 585.951C699.62 592.295 695.006 594.89 690.824 593.16C689.527 592.727 687.364 593.16 685.778 594.025C683.471 595.467 682.317 595.179 678.568 592.439C673.378 588.69 671.503 589.267 674.675 593.881C677.415 597.774 684.913 602.388 688.517 602.388C689.959 602.388 691.978 603.397 692.987 604.551C695.583 607.579 698.755 607.29 698.755 603.974C698.755 602.244 700.052 600.802 702.071 600.225C703.801 599.793 706.541 598.783 708.127 598.062C709.713 597.486 713.173 596.188 715.769 595.179C718.797 594.025 720.383 592.439 720.383 590.42C720.383 588.834 723.411 584.365 727.015 580.471L733.504 573.406L732.495 565.476C731.629 557.834 731.774 557.257 736.388 552.499C740.569 548.173 742.011 547.597 748.355 547.597C755.709 547.741 755.709 547.741 759.169 554.806C762.486 561.727 765.081 563.025 765.081 557.834C765.081 553.797 760.034 548.318 753.546 545.001C748.067 542.262 747.346 542.262 743.164 544.424C739.848 546.011 738.406 546.155 737.974 545.001C737.685 543.992 735.955 543.271 733.936 543.271C729.899 543.271 727.592 537.215 730.332 533.034C731.197 531.592 731.918 528.42 731.918 526.113C731.918 521.787 737.83 508.522 741.723 503.908C743.597 501.889 743.597 500.447 742.299 495.833C741.29 492.805 740.569 488.624 740.569 486.749C740.569 484.731 739.56 482.28 738.262 481.27C736.388 479.54 736.964 478.531 743.02 472.331C746.913 468.293 751.095 465.41 752.969 465.41C754.7 465.41 756.862 464.4 758.016 463.103C760.467 460.075 760.9 446.521 758.448 443.781C757.151 442.34 756.862 440.177 757.583 437.726C758.07 435.847 758.322 434.875 758.858 434.68C759.432 434.47 760.332 435.154 762.197 436.572C765.081 438.735 765.369 439.456 763.783 441.474C762.053 443.493 762.341 443.781 765.658 443.781H769.551L768.686 453.442C768.253 458.921 767.532 465.121 767.244 467.284C766.523 471.177 766.667 471.177 769.695 469.158C772.723 466.996 773.156 467.14 776.904 470.745C779.067 472.907 781.23 474.205 781.663 473.917C782.672 472.907 780.365 465.41 779.067 465.554C778.49 465.554 776.904 464.833 775.463 464.112C773.3 462.814 773.444 462.237 777.77 457.912C782.239 453.298 782.528 453.298 786.421 455.461C788.872 456.758 790.17 458.633 789.881 460.219C789.449 462.382 790.026 462.814 793.342 462.093C798.533 461.084 809.779 469.014 809.347 473.628C809.202 475.214 810.356 477.954 811.798 479.684C814.682 482.856 819.872 483.866 819.872 481.27C819.872 478.819 815.547 471.177 814.393 471.177C813.672 471.177 811.509 468.582 809.347 465.265C805.742 459.786 805.598 459.21 807.616 453.586C808.914 449.549 809.202 446.809 808.193 445.079C805.886 440.609 806.751 435.419 810.212 432.679C812.951 430.516 815.258 430.228 822.9 430.805C834.291 431.67 860.245 428.93 860.245 426.767C860.245 426.335 858.082 424.172 855.631 421.865L850.873 417.828L854.477 414.511C856.496 412.781 858.37 410.041 858.515 408.455C859.957 394.469 860.389 393.316 864.715 393.316C867.31 393.316 869.329 392.306 870.338 390.288C871.347 388.702 874.231 386.395 876.826 385.241C879.566 384.232 882.017 382.646 882.45 381.925C883.027 381.204 886.055 380.195 889.371 379.618C896.58 378.32 904.655 373.85 901.771 372.697C898.455 371.255 905.952 366.208 912.873 365.199C916.334 364.622 919.506 363.325 919.939 362.171C920.371 361.018 922.678 360.153 925.129 360.153C929.022 360.153 929.455 360.585 928.734 363.036C928.013 365.343 928.446 365.92 931.474 365.92C933.492 365.92 935.223 365.199 935.223 364.478C935.223 363.613 937.385 362.027 939.981 360.873C943.297 359.432 944.018 358.711 942.432 357.99C941.134 357.557 940.125 355.971 939.981 354.385C939.692 351.934 940.702 351.501 945.748 351.501C953.246 351.501 956.851 349.483 954.255 346.887C949.497 342.129 955.409 324.106 964.204 317.04C968.962 313.147 970.693 312.571 973.865 313.436C976.028 314.012 978.767 314.301 980.065 314.157C981.651 314.012 982.66 315.454 983.381 318.482C984.102 322.231 983.525 323.961 981.074 326.701L977.758 330.161L983.958 329.152C989.293 328.287 990.735 328.575 993.763 331.459C996.647 334.199 997.656 334.487 1000.83 333.045C1002.85 332.036 1006.02 331.315 1007.75 331.315C1009.48 331.315 1012.22 330.306 1013.66 329.152C1015.54 327.71 1016.98 327.566 1018.13 328.431C1019.14 329.296 1021.45 329.729 1023.18 329.585C1025.63 329.296 1027.5 330.594 1030.1 334.199C1031.97 336.938 1034.28 339.101 1035 338.813C1038.03 337.948 1044.81 346.166 1044.81 350.348C1044.81 352.655 1046.25 356.404 1047.98 358.855C1050.72 362.46 1050.86 363.613 1049.42 365.92C1048.41 367.506 1047.69 369.813 1047.69 370.967C1047.69 374.427 1044.23 380.339 1037.88 388.125C1034.71 392.018 1031.83 396.92 1031.54 399.227C1030.96 403.265 1031.11 403.409 1036.3 403.409C1039.33 403.409 1043.51 404.13 1045.81 404.995C1049.42 406.293 1050.14 406.004 1053.46 401.967C1057.06 397.497 1057.21 397.497 1059.66 400.237C1060.95 401.679 1062.11 404.418 1062.11 406.293C1062.11 409.321 1062.54 409.176 1068.45 403.697C1072.06 400.381 1076.67 397.353 1078.98 396.776C1081.14 396.344 1086.91 395.046 1091.52 393.892C1099.6 391.874 1100.32 392.018 1101.62 394.325C1102.48 395.767 1103.06 397.93 1103.2 399.083C1103.2 400.525 1104.93 401.39 1107.96 401.679C1111.71 402.111 1112.57 401.679 1112.57 399.227C1112.57 394.902 1114.88 394.469 1116.61 398.362C1118.63 402.832 1119.93 402.832 1125.12 398.651C1127.28 396.776 1130.89 394.758 1133.19 394.181C1137.95 393.027 1138.09 390.288 1134.2 382.79C1130.89 376.59 1130.74 375.725 1132.9 368.371C1134.2 363.325 1134.63 363.036 1136.8 364.911C1138.09 366.064 1140.11 366.641 1141.12 366.353C1142.13 365.92 1144.29 366.785 1145.74 368.083C1147.61 369.813 1149.05 370.102 1151.07 369.092C1152.51 368.371 1154.53 368.083 1155.54 368.371C1156.41 368.804 1157.27 368.227 1157.27 367.074C1157.27 366.064 1158.57 363.901 1160.3 362.604C1162.61 360.585 1163.76 360.441 1165.2 361.594C1166.36 362.604 1168.66 363.469 1170.54 363.757C1179.04 364.767 1181.93 366.208 1181.06 368.948C1179.91 372.264 1185.97 380.195 1188.7 379.185C1194.33 377.311 1196.49 388.125 1191.44 392.162C1188.27 394.613 1188.27 394.613 1192.6 394.325C1196.06 394.037 1197.07 394.613 1197.36 397.209C1197.64 399.083 1198.8 400.525 1199.95 400.525C1201.1 400.525 1204.57 402.4 1207.45 404.707C1211.92 408.311 1213.94 409.032 1219.56 408.744C1223.45 408.6 1226.48 407.734 1226.48 407.014C1226.48 403.841 1221.15 388.846 1219.56 387.26C1218.55 386.251 1217.83 383.655 1217.83 381.492C1217.83 378.032 1218.41 377.455 1221.87 377.455C1224.03 377.455 1227.2 378.464 1229.08 379.618C1233.4 382.79 1242.34 381.204 1242.34 377.167C1242.34 371.543 1246.52 366.064 1252.15 364.622C1255.03 363.757 1258.78 363.036 1260.37 362.892C1262.82 362.748 1262.82 362.604 1260.8 362.027C1259.36 361.739 1258.2 361.018 1258.2 360.441C1258.2 358.134 1266.28 351.501 1269.31 351.501C1271.18 351.501 1272.62 350.925 1272.62 350.348C1272.62 348.329 1262.53 340.11 1261.66 341.552C1261.23 342.273 1259.79 342.273 1258.06 341.408C1254.17 339.245 1254.45 331.748 1258.49 327.422C1261.95 323.817 1261.95 323.817 1255.32 319.924C1253.44 318.771 1253.59 318.194 1255.9 315.599C1257.48 313.868 1260.22 312.571 1262.1 312.571C1267.14 312.571 1270.89 310.264 1273.2 305.65C1274.64 302.766 1277.96 300.603 1285.45 297.719C1298.58 292.528 1302.32 294.403 1295.4 302.333C1292.81 305.217 1292.66 305.505 1294.97 303.631C1296.7 302.189 1299.3 301.612 1301.46 301.901C1304.78 302.622 1305.06 302.189 1305.21 297.143C1305.21 287.914 1308.38 283.589 1317.61 279.696L1325.83 276.091L1329.43 278.975C1332.75 281.57 1332.89 282.147 1331.02 284.598C1329.86 286.184 1328.85 287.77 1328.85 288.347C1328.85 290.51 1332.75 289.501 1335.34 286.617C1336.79 285.031 1338.66 283.877 1339.52 284.021C1340.39 284.166 1343.42 283.156 1346.01 281.714C1350.34 279.407 1351.78 279.263 1356.11 280.849C1361.01 282.58 1361.15 282.58 1367.35 276.091C1371.97 271.189 1373.55 268.305 1373.55 264.989C1373.55 260.23 1378.02 253.165 1387.83 242.063C1393.16 236.151 1393.88 235.863 1402.97 235.142L1412.63 234.277L1418.68 240.188C1424.31 245.812 1425.03 246.1 1428.34 244.37C1436.28 240.188 1438.44 238.17 1438.44 235.286C1438.44 233.7 1439.74 231.105 1441.32 229.663C1443.2 227.932 1444.21 225.193 1444.21 221.732C1444.21 215.821 1446.51 212.072 1450.69 211.351C1452.57 211.062 1453.72 209.621 1454.01 207.314C1454.3 205.295 1456.46 201.979 1458.77 199.96C1462.81 196.355 1463.09 195.634 1462.23 189.434C1461.65 185.83 1460.64 182.369 1459.92 181.937C1457.47 180.495 1458.62 175.881 1462.37 171.267L1466.27 166.797L1470.3 170.69C1474.05 174.295 1474.2 174.871 1472.32 177.034C1470.3 179.197 1470.3 179.774 1472.47 181.504C1474.48 183.09 1475.78 182.946 1481.55 180.783C1485.15 179.341 1489.62 177.899 1491.5 177.467C1493.52 177.034 1494.67 175.592 1494.67 173.574C1494.67 169.825 1483.71 164.778 1477.95 165.932C1475.64 166.364 1473.91 165.787 1473.48 164.634C1473.04 163.48 1471.17 162.615 1469.29 162.615C1466.27 162.615 1465.83 161.894 1465.83 157.569C1465.83 153.964 1466.84 151.657 1469.44 149.35C1471.46 147.62 1473.04 145.024 1473.04 143.583C1473.04 142.141 1474.63 140.122 1476.65 139.257C1478.67 138.392 1480.25 136.373 1480.25 134.931C1480.25 133.489 1482.27 128.587 1484.58 124.117C1487.03 119.647 1488.9 115.322 1488.9 114.457C1488.9 111.14 1512.69 89.368 1520.62 85.4749C1524.95 83.3121 1532.16 78.4097 1536.49 74.5166C1540.81 70.6236 1546.72 65.4328 1549.75 62.8374C1552.63 60.2421 1556.82 57.6467 1559.12 56.9257C1561.29 56.2048 1564.75 54.042 1566.76 52.3117C1568.78 50.5815 1572.82 47.9861 1575.85 46.5442C1580.75 44.2372 1581.47 44.2372 1583.78 46.2558C1585.22 47.5535 1587.67 48.1303 1589.98 47.6977C1592.14 47.2652 1594.3 47.6977 1594.74 48.5628C1596.18 50.8699 1598.77 50.4373 1602.81 47.2652L1606.42 44.5256L1602.81 44.6698C1588.54 45.5349 1586.52 44.093 1588.68 34.5766C1589.69 30.3952 1590.99 27.0789 1591.57 27.0789C1592.29 27.0789 1592.72 26.2138 1592.72 25.2044C1592.72 21.7439 1601.37 12.9485 1605.7 11.9392C1608 11.3624 1611.32 9.34378 1613.05 7.18097C1614.64 5.01815 1617.81 2.56696 1619.83 1.70184C1625.45 -0.749357 1625.88 -0.749357 1625.88 2.99952C1625.88 4.87396 1627.47 7.90191 1629.49 9.77635C1632.37 12.5159 1632.66 13.5252 1631.36 15.2555C1629.92 16.8415 1630.21 17.1299 1632.51 16.6974C1634.82 16.409 1635.25 17.1299 1635.4 21.8881C1635.4 25.4928 1636.26 27.7998 1637.85 28.8091C1639.72 29.8184 1640.3 29.5301 1640.3 27.5114C1640.44 25.637 1642.17 26.7905 1646.64 31.6929L1652.84 38.4697L1656.74 34.5766L1660.63 30.6836L1660.05 34.2883C1659.62 36.3069 1659.91 39.3348 1660.63 41.0651C1661.35 42.9395 1661.06 46.6884 1660.05 50.4373C1658.47 55.628 1657.31 56.9257 1653.28 58.2234C1648.81 59.6653 1646.07 62.5491 1640.88 71.2003C1639.58 73.3631 1637.71 73.9399 1632.23 73.6515C1622.85 73.3631 1621.27 74.805 1622.42 83.1679C1623.14 88.647 1622.71 90.5215 1620.11 93.8378C1617.81 96.7216 1616.37 97.4425 1614.78 96.4332C1612.9 95.4239 1601.66 95.8564 1600.22 97.0099C1600.07 97.1541 1600.5 99.0286 1601.37 101.191C1602.67 104.652 1603.24 104.94 1608.29 104.075C1613.63 103.21 1614.2 103.643 1621.27 110.852C1627.18 117.052 1629.05 120.224 1630.21 126.28C1631.65 133.057 1631.51 134.355 1628.77 138.824C1626.93 141.888 1626.21 143.092 1626.53 143.565C1626.75 143.871 1627.4 143.871 1628.48 143.871C1630.21 143.871 1632.66 142.285 1634.24 140.266C1636.7 137.094 1638.28 136.662 1645.78 136.662C1651.4 136.662 1654.72 137.238 1655.15 138.392C1655.58 139.834 1656.16 139.834 1657.89 138.536C1659.05 137.527 1660.34 137.094 1660.92 137.527C1661.35 137.959 1663.37 137.238 1665.39 135.941C1667.55 134.499 1670.44 133.778 1672.31 134.21C1674.04 134.643 1676.64 134.499 1678.08 133.634C1680.24 132.48 1680.96 132.913 1681.97 135.652C1682.69 137.382 1684.28 139.834 1685.58 140.843C1686.87 141.852 1687.88 144.88 1687.88 147.476C1687.88 151.225 1687.16 152.378 1684.42 153.099C1682.26 153.676 1680.38 155.55 1679.52 158.29C1678.37 161.318 1676.92 162.615 1674.62 162.615C1671.45 162.76 1671.45 162.76 1674.04 164.778C1675.63 165.932 1676.92 168.383 1677.21 170.113C1677.36 171.988 1678.51 176.025 1679.81 179.197C1680.96 182.369 1681.97 188.281 1682.11 192.318C1682.11 196.355 1683.41 203.853 1684.85 208.9C1686.44 213.946 1688.03 220.579 1688.6 223.463C1689.04 226.491 1691.05 230.816 1692.93 233.123C1694.95 235.43 1696.53 239.179 1696.53 241.342C1696.53 248.84 1699.56 256.914 1704.18 261.672L1708.65 266.431L1705.19 269.891C1702.59 272.919 1701.44 273.207 1699.13 272.054C1695.24 270.035 1689.76 271.621 1688.6 274.938C1688.17 276.524 1686.15 280.128 1684.13 283.012C1681.68 286.761 1680.96 288.924 1681.97 290.077C1682.98 291.231 1682.98 293.682 1681.97 297.287C1680.67 301.757 1680.96 303.343 1683.41 307.38C1685.14 309.975 1686.44 313.868 1686.44 315.887C1686.44 319.492 1686.15 319.636 1682.55 318.05C1680.24 317.04 1677.21 315.31 1675.77 314.157C1674.48 313.078 1673.83 312.538 1673.7 312.642C1673.57 312.746 1673.97 313.503 1674.76 315.022C1675.63 316.752 1676.35 319.492 1676.35 321.078C1676.35 322.664 1677.65 324.25 1679.23 324.827C1683.27 326.124 1682.84 327.566 1677.21 332.324C1674.33 334.776 1672.02 338.236 1671.59 341.12C1670.72 345.59 1671.3 346.743 1679.23 354.962C1686.01 362.027 1687.88 364.911 1687.88 368.515C1687.88 375.148 1689.04 377.022 1696.1 381.781C1703.02 386.539 1705.91 387.26 1704.61 383.944C1704.03 382.213 1706.92 375.581 1710.38 370.534C1711.24 369.236 1721.05 379.906 1721.05 382.213C1721.05 387.404 1734.02 395.479 1736.33 391.73C1737.92 389.134 1745.12 390.432 1748.3 393.748C1750.75 396.632 1751.18 397.93 1750.03 400.813C1749.31 402.832 1747.58 404.851 1746.42 405.283C1745.12 405.86 1744.12 407.158 1744.12 408.311C1744.12 412.204 1750.17 420.711 1753.63 421.577C1755.51 422.009 1757.67 423.307 1758.53 424.46C1759.69 425.614 1761.71 426.046 1764.45 425.47C1769.49 424.46 1775.4 427.921 1777.42 433.256C1778.58 436.572 1778.14 437.581 1772.95 442.34C1767.47 447.386 1767.04 448.251 1767.91 453.442C1769.93 464.112 1776.41 471.033 1787.37 474.061C1792.13 475.359 1792.56 481.703 1787.95 482.424C1785.5 482.712 1784.63 484.154 1783.91 488.48C1782.76 496.122 1783.62 497.852 1794.87 508.378C1802.08 515.154 1804.67 518.615 1804.67 521.499C1804.82 523.517 1805.68 529.141 1806.84 533.899C1807.99 538.657 1809 546.011 1809 550.336V558.122ZM765.946 489.201C768.109 490.498 770.704 491.219 772.002 490.642C773.732 489.921 773.876 489.345 772.723 488.912C771.714 488.48 770.849 487.47 770.849 486.605C770.849 485.74 769.983 484.01 768.83 482.856C767.821 481.559 766.379 478.675 765.658 476.512C763.927 471.033 762.197 473.052 762.197 480.693C762.197 485.596 762.918 487.182 765.946 489.201ZM993.619 338.524C992.321 340.687 993.474 341.841 996.647 341.12C998.809 340.687 998.954 340.543 996.791 338.813C995.205 337.515 994.339 337.371 993.619 338.524ZM1023.9 427.777C1024.47 426.191 1027.36 423.307 1030.53 421.288C1036.73 417.395 1037.74 414.944 1033.27 414.944C1030.96 414.944 1030.53 414.223 1031.25 411.483C1031.68 409.609 1031.54 407.734 1030.82 407.302C1029.09 406.293 1024.62 413.79 1024.62 417.539C1024.62 419.702 1023.32 420.711 1020.29 421.432C1017.99 422.009 1015.97 423.163 1015.97 424.172C1015.97 425.325 1014.53 427.921 1012.8 430.228C1009.77 433.977 1009.77 434.121 1012.36 433.112C1013.95 432.391 1016.98 431.525 1019.14 431.093C1021.3 430.805 1023.47 429.218 1023.9 427.777ZM1606.42 690.342C1604.69 690.342 1604.54 690.919 1605.98 693.082C1607.28 695.245 1607.28 696.398 1605.84 698.129C1604.11 700.147 1604.4 700.436 1606.99 700.436C1608.87 700.436 1610.74 702.022 1612.18 704.761C1613.48 707.357 1615.5 709.087 1617.23 709.087C1621.41 709.087 1620.84 705.194 1615.79 699.138C1614.34 697.432 1612.84 695.624 1611.67 694.224C1610.87 693.257 1610.23 692.485 1609.88 692.073C1609.16 691.208 1607.57 690.342 1606.42 690.342ZM1619.39 151.08C1618.96 151.801 1619.25 152.522 1619.97 152.522C1620.84 152.522 1621.56 151.801 1621.56 151.08C1621.56 150.215 1621.27 149.638 1620.98 149.638C1620.55 149.638 1619.83 150.215 1619.39 151.08ZM1619.39 143.871C1618.96 144.592 1619.83 145.313 1621.41 145.313C1623.14 145.313 1624.44 144.592 1624.44 143.871C1624.44 143.006 1623.57 142.429 1622.42 142.429C1621.27 142.429 1619.83 143.006 1619.39 143.871ZM578.936 427.056C582.829 423.739 580.666 416.242 574.322 410.186C570.14 406.437 569.275 404.562 569.996 401.823C571.871 394.614 574.466 392.307 582.252 391.441C586.289 390.865 590.759 389.423 592.201 388.125C594.652 385.962 594.652 385.53 592.634 383.944C590.615 382.502 590.759 382.069 594.22 379.762C596.382 378.32 598.978 377.599 600.131 378.032C601.573 378.609 602.15 377.744 602.15 375.004C602.15 371.543 602.438 371.399 608.638 371.976C613.541 372.553 615.127 372.264 615.127 370.823C615.127 369.669 615.848 368.804 616.857 368.804C617.722 368.804 617.29 367.939 615.848 366.785C611.955 363.902 613.973 361.018 621.471 358.999C628.392 357.125 640.216 349.627 638.629 348.041C638.197 347.608 639.35 347.176 641.513 347.176C645.983 347.176 647.569 345.013 647.137 339.678C646.848 335.352 649.155 333.045 651.606 335.497C653.769 337.659 655.499 337.515 655.499 334.92C655.499 333.334 656.509 332.901 659.104 333.622C661.7 334.199 663.718 333.766 665.737 331.892C670.062 327.999 677.849 325.836 684.77 326.557C689.239 327.134 691.402 326.701 692.844 324.971C695.295 322.087 698.467 322.087 701.64 324.827C705.244 328.143 719.807 329.296 722.979 326.557C724.277 325.403 728.314 322.808 731.919 320.934C742.877 315.166 750.519 318.194 750.663 328.431C750.663 332.18 749.366 334.631 745.328 338.813C742.156 342.129 738.552 344.292 736.533 344.292C734.803 344.292 731.198 345.301 728.747 346.599C725.286 348.329 723.556 348.473 720.961 347.32C718.798 346.455 717.356 346.311 716.779 347.176C716.202 348.041 711.156 348.618 705.388 348.618C697.746 348.618 694.286 349.194 692.988 350.78C691.979 351.934 689.095 352.943 686.644 352.943C680.876 352.943 677.849 354.962 679.002 357.846C680.156 360.729 675.974 363.036 669.341 363.036C666.458 363.036 664.151 363.613 664.151 364.478C664.151 365.199 663.141 365.488 661.988 365.055C660.69 364.478 659.825 365.055 659.825 366.353C659.825 367.506 657.23 370.102 654.058 372.264C650.885 374.283 648.29 376.734 648.29 377.455C648.29 378.32 647.281 378.897 646.127 378.897C644.974 378.897 643.964 380.195 643.964 381.781C643.964 384.953 642.523 385.53 640.216 383.223C639.062 382.069 638.053 382.358 636.755 383.944C635.746 385.097 634.015 386.106 633.006 386.106C631.853 386.106 629.546 388.413 627.815 391.153C625.364 394.613 623.201 396.2 620.173 396.488C616.713 396.776 615.704 397.641 615.415 400.814C615.127 403.121 613.829 405.139 612.099 405.572C610.657 406.148 609.359 407.302 609.359 408.311C609.359 409.465 608.494 411.051 607.341 411.916C604.89 413.935 603.448 426.335 605.178 429.651C605.899 431.093 605.899 433.4 605.178 435.419C604.313 437.726 604.457 440.033 605.899 442.34C608.927 447.963 608.35 450.27 603.015 452.865C598.113 455.172 597.969 455.172 597.536 452C597.248 449.982 595.95 448.684 593.931 448.396C592.057 448.107 590.615 447.242 590.615 446.521C590.615 445.8 589.894 445.223 588.885 445.223C586.145 445.223 576.196 434.842 576.196 431.958C576.196 430.516 577.35 428.353 578.936 427.056Z" fill="url(#paint0_linear_469_10895)"/>
<defs>
<linearGradient id="paint0_linear_469_10895" x1="175.208" y1="468.582" x2="1415.22" y2="76.391" gradientUnits="userSpaceOnUse">
<stop stop-color="#161616"/>
<stop offset="0.4648" stop-color="#805D16"/>
<stop offset="1" stop-color="#F9AF15"/>
</linearGradient>
</defs>
</svg>
