<svg width="84" height="26" viewBox="0 0 84 26" fill="none" xmlns="http://www.w3.org/2000/svg">
<path d="M6.45703 3.20833H13.332C13.957 3.20833 15.832 3 16.6654 5.91667C17.2904 7.79167 18.1237 10.7083 19.3737 15.0833H19.7904C21.0404 10.5 22.082 7.375 22.4987 5.91667C23.332 3 25.4154 3.20833 26.2487 3.20833H32.707V23.2083H26.0404V11.3333H25.6237L22.082 23.2083H17.082L13.5404 11.3333H12.9154V23.2083H6.45703M35.4154 3.20833H42.082V15.0833H42.707L47.082 5.29167C47.9154 3.41667 49.7904 3.20833 49.7904 3.20833H56.0404V23.2083H49.3737V11.3333H48.957L44.582 21.125C43.7487 23 41.6654 23.2083 41.6654 23.2083H35.4154M64.9987 17.1667V23.2083H58.7487V12.7917H79.1654C78.332 15.2917 75.4154 17.1667 72.082 17.1667" fill="#0F754E"/>
<path d="M79.582 11.5416C80.4154 7.79158 77.9154 3.20825 72.4987 3.20825H58.332C58.7487 7.58325 62.4987 11.5416 66.457 11.5416" fill="url(#paint0_linear_469_9531)"/>
<defs>
<linearGradient id="paint0_linear_469_9531" x1="77.082" y1="0.499919" x2="60.4154" y2="0.499919" gradientUnits="userSpaceOnUse">
<stop stop-color="#1F5CD7"/>
<stop offset="1" stop-color="#02AEFF"/>
</linearGradient>
</defs>
</svg>
