<svg width="19" height="19" viewBox="0 0 19 19" fill="none" xmlns="http://www.w3.org/2000/svg">
<rect width="19" height="19" rx="5" fill="#F9AF15"/>
<path d="M14.2768 7.0259L13.4732 6.23939C13.3648 6.13335 13.2294 6.08032 13.0759 6.08032C12.9223 6.08032 12.7869 6.13335 12.6785 6.23939L8.81383 10.0217L7.08916 8.32497C6.9808 8.21893 6.84536 8.1659 6.69185 8.1659C6.53835 8.1659 6.4029 8.21893 6.29454 8.32497L5.4909 9.11148C5.37351 9.21753 5.31934 9.35009 5.31934 9.50032C5.31934 9.65055 5.37351 9.78311 5.48187 9.88916L7.61288 11.9747L8.41652 12.7613C8.52488 12.8673 8.66033 12.9203 8.81383 12.9203C8.96734 12.9203 9.10278 12.8673 9.21114 12.7613L10.0148 11.9747L14.2768 7.80358C14.3852 7.69753 14.4393 7.56497 14.4393 7.41474C14.4393 7.26451 14.3852 7.13195 14.2768 7.0259Z" fill="white"/>
</svg>
