<svg width="18" height="18" viewBox="0 0 18 18" fill="none" xmlns="http://www.w3.org/2000/svg">
<path d="M8.8291 0.5C4.13122 0.5 0.329102 4.30163 0.329102 9C0.329102 13.6979 4.13073 17.5 8.8291 17.5C13.527 17.5 17.3291 13.6984 17.3291 9C17.3291 4.30206 13.5275 0.5 8.8291 0.5ZM8.80935 10.7791C8.54004 10.7791 8.28457 10.7192 8.05497 10.6126L6.63919 12.0284C6.40763 12.26 6.03214 12.26 5.80055 12.0284C5.56895 11.7969 5.56895 11.4214 5.80055 11.1898L7.20268 9.78764C7.08003 9.54466 7.01053 9.27047 7.01053 8.98021C7.01053 8.18875 7.52455 7.51552 8.23613 7.2756V4.21626C8.23613 3.88874 8.50165 3.62325 8.82913 3.62325C9.15665 3.62325 9.42214 3.88878 9.42214 4.21626V7.28898C10.1132 7.54016 10.6082 8.20342 10.6082 8.98021C10.6082 9.97212 9.80122 10.7791 8.80935 10.7791Z" fill="#C1C1C1"/>
<path d="M8.81006 8.36768C8.47215 8.36768 8.19727 8.64256 8.19727 8.98047C8.19727 9.31838 8.47215 9.59327 8.81006 9.59327C9.14797 9.59327 9.42286 9.31838 9.42286 8.98047C9.42286 8.64256 9.14797 8.36768 8.81006 8.36768Z" fill="#C1C1C1"/>
</svg>
