<svg width="80" height="80" viewBox="0 0 80 80" fill="none" xmlns="http://www.w3.org/2000/svg">
<rect width="80" height="80" rx="20" fill="#F9AF15"/>
<path d="M28.1564 51.5628C27.2825 50.6889 27.2825 49.2719 28.1564 48.398L47.9687 28.5857C48.8427 27.7117 50.2596 27.7117 51.1336 28.5857L51.4153 28.8674C52.2893 29.7413 52.2893 31.1583 51.4153 32.0323L31.603 51.8445C30.7291 52.7185 29.3121 52.7185 28.4381 51.8445L28.1564 51.5628Z" fill="white"/>
<path d="M28.8671 28.1555C29.7411 27.2815 31.158 27.2815 32.032 28.1555L51.8443 47.9677C52.7182 48.8417 52.7182 50.2587 51.8443 51.1326L51.5626 51.4143C50.6886 52.2883 49.2717 52.2883 48.3977 51.4143L28.5854 31.602C27.7115 30.7281 27.7115 29.3111 28.5854 28.4372L28.8671 28.1555Z" fill="white"/>
</svg>
