<svg width="28" height="28" viewBox="0 0 28 28" fill="none" xmlns="http://www.w3.org/2000/svg">
<path d="M18.7222 22.9643C18.8182 23.0603 18.7793 23.2283 18.6493 23.2703C10.9493 25.7363 2.61725 21.7672 0.0552502 14.3282C-0.0167498 14.1182 -0.0167498 13.8843 0.0552502 13.6733C0.79825 11.5163 2.04525 9.62625 3.64325 8.10025C3.70425 8.04225 3.80125 8.04425 3.86025 8.10325L8.16225 12.4052C8.19225 12.4352 8.20325 12.4772 8.19325 12.5182C7.07725 16.8632 11.1412 20.9133 15.4692 19.8123C15.5182 19.7993 15.5643 19.8082 15.6003 19.8442C15.9583 20.2012 18.0452 22.2873 18.7222 22.9643Z" fill="#C5C5C5"/>
<path d="M22.6803 21.2663C25.0863 19.5743 26.9612 17.1873 27.9462 14.3253C28.0182 14.1153 28.0182 13.8853 27.9462 13.6753C25.9542 7.88825 20.3502 4.00025 14.0002 4.00025C11.5212 4.00025 9.15925 4.59725 7.07925 5.66525L1.70725 0.29325C1.31625 -0.09775 0.68425 -0.09775 0.29325 0.29325C-0.09775 0.68425 -0.09775 1.31625 0.29325 1.70725L26.2932 27.7073C26.6842 28.0983 27.3163 28.0983 27.7073 27.7073C28.0983 27.3163 28.0983 26.6842 27.7073 26.2932L22.6803 21.2663ZM14.0002 8.00025C17.3092 8.00025 20.0002 10.6912 20.0002 14.0002C20.0002 15.2942 19.5843 16.4903 18.8853 17.4713L10.5293 9.11525C11.5103 8.41625 12.7062 8.00025 14.0002 8.00025Z" fill="#C5C5C5"/>
</svg>
