<svg width="30" height="30" viewBox="0 0 30 30" fill="none" xmlns="http://www.w3.org/2000/svg">
<path d="M14.7646 18.438V20.1958C14.7646 20.2793 14.7737 20.3607 14.7903 20.4393L17.2624 18.438H14.7646Z" fill="#F9AF15"/>
<path d="M25.8978 14.3364L28.4895 8.11646C28.6503 7.73051 28.3667 7.30518 27.9486 7.30518H21.9726V15.5083C21.9726 16.5269 21.4498 17.4254 20.6587 17.9505L16.4375 21.3677H27.9486C28.3667 21.3677 28.6503 20.9423 28.4895 20.5564L25.8978 14.3364Z" fill="#F9AF15"/>
<path d="M19.043 16.6802C19.2654 16.6802 19.4725 16.6171 19.6496 16.5096C19.6709 16.4946 19.6925 16.4807 19.7146 16.4677C20.0168 16.2558 20.2148 15.9054 20.2148 15.5083V3.78955C20.2148 3.14232 19.6901 2.61768 19.0429 2.61768H6.73828V16.6802H19.043V16.6802ZM12.0856 12.6882C11.8607 12.6882 11.6357 12.6025 11.4642 12.4308L9.80824 10.7749C9.465 10.4316 9.465 9.87516 9.80824 9.53191C10.1514 9.18867 10.7079 9.18867 11.0512 9.53191L12.0856 10.5663L15.6676 6.98437C16.0108 6.64113 16.5673 6.64113 16.9106 6.98437C17.2538 7.32762 17.2538 7.88408 16.9106 8.22732L12.7071 12.4308C12.5354 12.6025 12.3105 12.6882 12.0856 12.6882Z" fill="#F9AF15"/>
<path d="M4.98047 1.75781C4.98047 0.786973 4.1935 0 3.22266 0C2.25182 0 1.46484 0.786973 1.46484 1.75781V28.2422C1.46484 29.213 2.25182 30 3.22266 30C4.1935 30 4.98047 29.213 4.98047 28.2422V1.75781Z" fill="#F9AF15"/>
</svg>
