<svg width="31" height="30" viewBox="0 0 31 30" fill="none" xmlns="http://www.w3.org/2000/svg">
<g clip-path="url(#clip0_469_11877)">
<path d="M27.9914 14.9606V21.8088H18.7409V14.9606C16.6939 13.6057 15.3411 11.4138 15.0366 8.99595H14.9703V8.11532H11.9895L10.8144 5.76538H-0.0585938V28.7729H29.9994V13.0929C29.4424 13.8133 28.7672 14.4473 27.9914 14.9606ZM3.46598 21.7224V19.9611H10.452V21.7224H3.46598ZM10.452 23.4864V25.2476H3.46598V23.4864H10.452Z" fill="#F9AF15"/>
<path d="M20.502 18.064H26.2302V20.0474H20.502V18.064Z" fill="#F9AF15"/>
<path d="M20.0611 13.7071L20.5024 13.9612V16.3032H22.4858V11.6806L19.9215 9.11642L21.167 7.87116L23.3665 10.0707L25.5657 7.87116L26.8112 9.11642L24.2471 11.6806V16.3032H26.2303V13.9612L26.6716 13.7071C28.7248 12.5245 30.0003 10.3204 30.0003 7.95487C30.0003 6.18994 29.3148 4.52868 28.0703 3.27723C26.8264 2.02623 25.1702 1.33159 23.4066 1.32127C23.3933 1.32104 23.38 1.32104 23.3667 1.32104C21.6121 1.32104 19.9552 2.00812 18.6973 3.25888C17.4303 4.51836 16.7324 6.18628 16.7324 7.9551C16.7327 10.3204 18.008 12.5245 20.0611 13.7071Z" fill="#F9AF15"/>
</g>
<defs>
<clipPath id="clip0_469_11877">
<rect width="30.0587" height="30" fill="white"/>
</clipPath>
</defs>
</svg>
