<svg width="70" height="70" viewBox="0 0 70 70" fill="none" xmlns="http://www.w3.org/2000/svg">
<g clip-path="url(#clip0_469_11588)">
<path d="M4.56601 4.86007C-0.918334 10.556 0.203618 16.6035 0.203618 34.9888C0.203618 50.2542 -2.46017 65.5577 11.4818 69.1601C15.836 70.2804 54.4104 70.2804 58.7592 69.1601C64.5639 67.6608 69.2862 62.9544 69.9378 54.7466C70.0278 53.6017 70.0278 16.4086 69.9378 15.2392C69.2562 6.49701 63.8673 1.45671 56.7743 0.437198C55.1425 0.195951 54.8153 0.126438 46.4736 0.111446C16.8884 0.126438 10.4034 -1.19156 4.56601 4.86007Z" fill="url(#paint0_linear_469_11588)"/>
<path d="M13.6776 41.6303L16.7278 26.998C15.7935 27.3907 15.0688 27.9798 14.5535 28.7652C14.0383 29.5506 13.7807 30.5289 13.7807 31.7001C13.7807 31.9736 13.7944 32.198 13.8219 32.3733C13.8563 32.5416 13.8906 32.6784 13.9249 32.7836C13.9593 32.8818 13.9902 32.9589 14.0177 33.015C14.052 33.0711 14.0692 33.1202 14.0692 33.1623C13.7051 33.1623 13.3822 33.1272 13.1006 33.0571C12.8189 32.9799 12.5819 32.8607 12.3896 32.6994C12.2041 32.5381 12.0598 32.3242 11.9568 32.0577C11.8606 31.7913 11.8125 31.4617 11.8125 31.0689C11.8125 30.5921 11.9121 30.1222 12.1113 29.6593C12.3174 29.1965 12.5957 28.7582 12.946 28.3444C13.3032 27.9307 13.7189 27.5485 14.1929 27.1978C14.6738 26.8472 15.1855 26.5456 15.7283 26.2932C16.2778 26.0337 16.848 25.8338 17.4388 25.6936C18.0365 25.5463 18.6307 25.4727 19.2215 25.4727C19.3795 25.4727 19.5238 25.4762 19.6543 25.4832C19.7917 25.4902 19.9291 25.5007 20.0665 25.5147L16.7072 41.6303H13.6776Z" fill="white"/>
<path d="M31.7771 37.7697C31.4817 38.6534 31.1623 39.3582 30.8188 39.8841C30.4822 40.4101 30.1387 40.8133 29.7883 41.0938C29.4448 41.3673 29.1048 41.5462 28.7682 41.6303C28.4384 41.7145 28.1327 41.7566 27.851 41.7566C27.3839 41.7566 26.9923 41.6899 26.6763 41.5567C26.3603 41.4164 26.1061 41.2341 25.9138 41.0097C25.7214 40.7783 25.5806 40.5188 25.4913 40.2313C25.4088 39.9367 25.3676 39.6352 25.3676 39.3266C25.3676 38.9619 25.4157 38.5376 25.5119 38.0538C25.6149 37.5629 25.7249 37.0614 25.8416 36.5495C25.9584 36.0376 26.0649 35.5431 26.1611 35.0663C26.2641 34.5894 26.3157 34.1791 26.3157 33.8355C26.3157 33.0992 26.0615 32.731 25.5531 32.731C25.3608 32.731 25.1821 32.7836 25.0173 32.8888C24.8524 32.994 24.7013 33.1377 24.5639 33.3201C24.4265 33.4954 24.3028 33.7058 24.1929 33.9512C24.083 34.1897 23.9868 34.4456 23.9044 34.7191L22.472 41.6303H19.4322L21.6683 30.8585H24.7081L24.4814 31.9736C24.7081 31.7141 24.9314 31.5072 25.1512 31.353C25.3779 31.1917 25.5978 31.0689 25.8107 30.9848C26.0237 30.9006 26.2229 30.8445 26.4084 30.8165C26.6007 30.7884 26.7794 30.7744 26.9442 30.7744C27.2809 30.7744 27.5934 30.82 27.882 30.9111C28.1705 31.0023 28.4178 31.1461 28.6239 31.3424C28.8369 31.5388 29.0017 31.7913 29.1185 32.0998C29.2353 32.4084 29.2937 32.7766 29.2937 33.2044C29.2937 33.4919 29.2662 33.804 29.2113 34.1406C29.1632 34.4702 29.1013 34.8103 29.0258 35.1609C28.9502 35.5046 28.8678 35.8482 28.7785 36.1918C28.696 36.5355 28.617 36.8651 28.5415 37.1807C28.4659 37.4962 28.4006 37.7908 28.3457 38.0643C28.2976 38.3308 28.2735 38.5657 28.2735 38.7691C28.2735 39.0356 28.3319 39.253 28.4487 39.4213C28.5724 39.5896 28.7956 39.6737 29.1185 39.6737C29.3452 39.6737 29.5444 39.6281 29.7162 39.537C29.8879 39.4458 30.0425 39.3161 30.1799 39.1478C30.3173 38.9795 30.4409 38.7796 30.5509 38.5482C30.6676 38.3097 30.781 38.0503 30.8909 37.7697H31.7771Z" fill="white"/>
<path d="M40.4684 37.7697C39.9189 38.4219 39.3659 38.9619 38.8094 39.3897C38.2598 39.8105 37.7377 40.1681 37.2431 40.4627C37.0233 40.7011 36.776 40.9045 36.5012 41.0728C36.2332 41.2341 35.9516 41.3673 35.6562 41.4725C35.3677 41.5707 35.0723 41.6408 34.77 41.6829C34.4746 41.732 34.1929 41.7566 33.925 41.7566C33.396 41.7566 32.9358 41.6759 32.5442 41.5146C32.1595 41.3463 31.84 41.1324 31.5859 40.8729C31.3317 40.6064 31.1462 40.3119 31.0294 39.9893C30.9057 39.6597 30.8439 39.3301 30.8439 39.0005C30.8439 38.748 30.8783 38.5166 30.947 38.3062C31.0088 38.0888 31.0912 37.896 31.1943 37.7277C31.2973 37.5594 31.4141 37.4156 31.5446 37.2964C31.682 37.1701 31.8229 37.072 31.9671 37.0018C32.5579 35.9218 33.056 34.8559 33.4613 33.804C33.8666 32.745 34.2341 31.6826 34.5639 30.6166L37.6862 30.1958C37.7274 31.1285 37.7652 31.9385 37.7995 32.6258C37.8408 33.306 37.8785 33.8986 37.9129 34.4036C37.9472 34.9015 37.9782 35.3257 38.0056 35.6764C38.0331 36.027 38.0572 36.3391 38.0778 36.6126C38.1052 36.8791 38.1224 37.1246 38.1293 37.349C38.143 37.5664 38.1499 37.7943 38.1499 38.0327C38.1499 38.194 38.143 38.3413 38.1293 38.4745C38.1224 38.6078 38.1018 38.734 38.0675 38.8532C38.3766 38.6709 38.6548 38.4921 38.9021 38.3167C39.1563 38.1344 39.383 37.9521 39.5822 37.7697H40.4684ZM31.9671 38.5482C31.9671 39.0531 32.0633 39.4318 32.2557 39.6843C32.4549 39.9297 32.7881 40.0524 33.2552 40.0524C33.4888 40.0524 33.7155 40.0209 33.9353 39.9578C34.1551 39.8876 34.3509 39.7754 34.5227 39.6211C34.6944 39.4598 34.8318 39.253 34.9349 39.0005C35.0379 38.748 35.0894 38.4325 35.0894 38.0538C35.0894 37.8714 35.0826 37.6961 35.0688 37.5278C35.0619 37.3525 35.0516 37.1701 35.0379 36.9808C35.0242 36.7844 35.0036 36.567 34.9761 36.3286C34.9555 36.0902 34.928 35.8131 34.8936 35.4976C34.8662 35.182 34.8352 34.8173 34.8009 34.4036C34.7666 33.9898 34.7288 33.5059 34.6875 32.9519C34.4746 33.6532 34.2238 34.3334 33.9353 34.9926C33.6468 35.6518 33.3273 36.3286 32.977 37.0229C33.1144 37.1 33.2277 37.1982 33.317 37.3174C33.4132 37.4366 33.4613 37.5874 33.4613 37.7697C33.4613 37.903 33.4407 38.0327 33.3995 38.159C33.3582 38.2852 33.2964 38.4009 33.214 38.5061C33.1315 38.6043 33.0319 38.6849 32.9152 38.748C32.8052 38.8041 32.6781 38.8322 32.5339 38.8322C32.4171 38.8322 32.3072 38.8147 32.2041 38.7796C32.1011 38.7445 32.0221 38.6674 31.9671 38.5482Z" fill="white"/>
<path d="M46.7382 37.7697C46.539 38.3518 46.3157 38.8567 46.0684 39.2845C45.828 39.7123 45.5738 40.0735 45.3059 40.368C45.0448 40.6625 44.7734 40.901 44.4918 41.0833C44.217 41.2657 43.9491 41.4059 43.688 41.5041C43.427 41.6023 43.1762 41.6689 42.9358 41.704C42.7022 41.739 42.4927 41.7566 42.3072 41.7566C41.9912 41.7566 41.6958 41.7075 41.421 41.6093C41.1462 41.5111 40.9058 41.3568 40.6997 41.1464C40.5005 40.9361 40.3425 40.6696 40.2257 40.347C40.1089 40.0244 40.0505 39.6352 40.0505 39.1793C40.0505 38.983 40.0642 38.7691 40.0917 38.5376C40.1192 38.2992 40.1604 38.0432 40.2154 37.7697L41.4828 31.7211H40.7821L40.9573 30.8585H41.6477L42.2866 27.8816L45.4089 27.4503L44.6876 30.8585H45.955L45.7902 31.7211H44.5227L43.1728 38.18C43.1384 38.2992 43.1144 38.4184 43.1007 38.5376C43.0938 38.6499 43.0904 38.7621 43.0904 38.8743C43.0904 39.1758 43.1591 39.3862 43.2965 39.5054C43.4338 39.6176 43.6502 39.6737 43.9456 39.6737C44.1517 39.6737 44.351 39.6281 44.5433 39.537C44.7425 39.4388 44.9246 39.3056 45.0895 39.1372C45.2543 38.9689 45.402 38.7691 45.5326 38.5376C45.6631 38.2992 45.7696 38.0432 45.852 37.7697H46.7382Z" fill="white"/>
<path d="M55.1101 38.18C55.0757 38.2992 55.0517 38.4184 55.038 38.5376C55.0242 38.6499 55.0174 38.7621 55.0174 38.8743C55.0174 39.1758 55.086 39.3862 55.2234 39.5054C55.3677 39.6176 55.5875 39.6737 55.8829 39.6737C55.9791 39.6737 56.065 39.6667 56.1406 39.6527C56.2161 39.6387 56.2848 39.6141 56.3466 39.5791C56.2024 39.9507 56.065 40.2733 55.9345 40.5468C55.8039 40.8203 55.6597 41.0483 55.5017 41.2306C55.3437 41.4059 55.1616 41.5392 54.9555 41.6303C54.7563 41.7145 54.5193 41.7566 54.2445 41.7566C53.6606 41.7566 53.19 41.5847 52.8328 41.2411C52.4755 40.8905 52.2557 40.3961 52.1733 39.7579C52.0153 40.0033 51.8298 40.2453 51.6168 40.4837C51.4107 40.7222 51.1772 40.9361 50.9161 41.1254C50.6619 41.3147 50.3768 41.469 50.0608 41.5882C49.7448 41.7005 49.4013 41.7566 49.0304 41.7566C48.6663 41.7566 48.3159 41.6969 47.9793 41.5777C47.6427 41.4585 47.3438 41.2621 47.0828 40.9886C46.8217 40.7151 46.6122 40.3575 46.4542 39.9157C46.2962 39.4739 46.2172 38.9339 46.2172 38.2957C46.2172 37.8048 46.2653 37.2788 46.3615 36.7178C46.4576 36.1568 46.6053 35.5957 46.8046 35.0347C47.0038 34.4737 47.2511 33.9372 47.5465 33.4253C47.8488 32.9063 48.1991 32.4505 48.5976 32.0577C49.0029 31.658 49.4597 31.3424 49.9681 31.111C50.4764 30.8726 51.0363 30.7534 51.6477 30.7534C52.2454 30.7534 52.6782 30.8585 52.9461 31.0689C53.2209 31.2793 53.3583 31.5388 53.3583 31.8474V32.0052L53.585 30.8585H56.6249L55.1101 38.18ZM53.1625 32.9098C53.1625 32.8467 53.1488 32.7696 53.1213 32.6784C53.0938 32.5802 53.0457 32.489 52.977 32.4049C52.9152 32.3137 52.8293 32.2401 52.7194 32.184C52.6095 32.1209 52.4687 32.0893 52.2969 32.0893C52.0015 32.0893 51.7199 32.1875 51.452 32.3838C51.1909 32.5802 50.9505 32.8432 50.7306 33.1728C50.5108 33.4954 50.315 33.8636 50.1433 34.2773C49.9715 34.6911 49.8238 35.1189 49.7002 35.5607C49.5834 35.9955 49.4941 36.4268 49.4322 36.8546C49.3704 37.2753 49.3395 37.654 49.3395 37.9906C49.3395 38.4044 49.3773 38.7235 49.4529 38.9479C49.5284 39.1723 49.6177 39.3406 49.7208 39.4528C49.8307 39.558 49.9475 39.6211 50.0711 39.6422C50.1948 39.6632 50.3047 39.6737 50.4009 39.6737C50.5589 39.6737 50.7238 39.6352 50.8955 39.558C51.0741 39.4739 51.2424 39.3546 51.4004 39.2004C51.5653 39.0391 51.713 38.8392 51.8435 38.6008C51.9809 38.3623 52.084 38.0853 52.1527 37.7697L53.1625 32.9098Z" fill="white"/>
</g>
<defs>
<linearGradient id="paint0_linear_469_11588" x1="4.95505" y1="65.1382" x2="69.8001" y2="8.99469" gradientUnits="userSpaceOnUse">
<stop stop-color="#FFDD55"/>
<stop offset="0.5" stop-color="#FF543E"/>
<stop offset="1" stop-color="#C837AB"/>
</linearGradient>
<clipPath id="clip0_469_11588">
<rect width="70" height="70" rx="35" fill="white"/>
</clipPath>
</defs>
</svg>
