<svg width="32" height="32" viewBox="0 0 32 32" fill="none" xmlns="http://www.w3.org/2000/svg">
<path d="M5.38477 16.9615L6.43608 18.0131L9.55576 14.8925L6.85084 18.428L7.82821 19.4039L10.7135 16.5178L8.21231 19.7899L8.70822 20.286L11.1318 17.8616L9.60986 21.1879L10.0066 21.5829L12.8918 18.6968L10.3907 21.9689L11.1589 22.7374L13.9341 20.7423L11.5484 23.127L12.4933 24.074L14.6464 21.9202L13.294 24.8749L13.8746 25.4557L17.2341 23.0386L14.3489 25.9247L15.0233 26.5993L20.4512 21.1698L10.8126 11.532L5.38477 16.9615ZM30.2917 1.68856C29.1538 0.550348 27.2261 0.469176 26.1712 1.68856C25.4012 2.59047 24.0614 4.5386 23.286 5.42427C22.2676 6.60275 21.1653 7.70596 19.9878 8.72527C19.1429 9.56682 17.9991 10.0393 16.8068 10.0393C15.6144 10.0393 14.4707 9.56682 13.6258 8.72527L11.7486 10.5958L21.3853 20.2373L23.2571 18.3649C22.4158 17.5197 21.9435 16.3756 21.9435 15.1829C21.9435 13.9903 22.4158 12.8462 23.2571 12.001C24.2758 10.8234 25.378 9.72077 26.5553 8.70182C27.4425 7.92076 29.3973 6.58052 30.2917 5.8157C31.5107 4.75866 31.4296 2.82677 30.2917 1.68856ZM29.3396 4.9174C29.1146 5.14229 28.828 5.2954 28.516 5.35738C28.204 5.41935 27.8806 5.38741 27.5868 5.26559C27.2929 5.14377 27.0418 4.93754 26.8651 4.67297C26.6884 4.4084 26.5941 4.09736 26.5941 3.77919C26.5941 3.46101 26.6884 3.14998 26.8651 2.88541C27.0418 2.62084 27.2929 2.41461 27.5868 2.29279C27.8806 2.17096 28.204 2.13902 28.516 2.201C28.828 2.26298 29.1146 2.41609 29.3396 2.64098C29.4893 2.79028 29.6081 2.96768 29.6892 3.163C29.7702 3.35831 29.8119 3.56771 29.8119 3.77919C29.8119 3.99067 29.7702 4.20006 29.6892 4.39538C29.6081 4.5907 29.4893 4.76809 29.3396 4.9174Z" fill="#F9AF15"/>
<path d="M28.9698 8.11035C27.8716 8.8878 26.1044 10.3886 23.9008 12.7714L27.7472 11.0632C28.9209 13.8518 29.0657 16.9669 28.1556 19.8524C27.2456 22.7379 25.34 25.206 22.779 26.816C20.218 28.4261 17.1684 29.0733 14.1745 28.6422C11.1806 28.211 8.43727 26.7295 6.43433 24.4623C4.43138 22.195 3.29917 19.2894 3.2398 16.2643C3.18043 13.2392 4.19777 10.2915 6.11021 7.9473C8.02265 5.60313 10.7057 4.01512 13.6804 3.46676C16.6551 2.91841 19.7278 3.4454 22.35 4.95366L22.5177 4.76246C22.8783 4.36201 23.3742 3.68017 23.8719 3.01997C20.697 1.09448 16.9269 0.399387 13.2743 1.06611C9.62178 1.73284 6.34005 3.71517 4.04967 6.63828C1.75928 9.56138 0.619 13.2226 0.844438 16.9298C1.06988 20.6369 2.64541 24.1329 5.27312 26.7567C7.90083 29.3806 11.3986 30.9504 15.105 31.1693C18.8114 31.3883 22.4695 30.2412 25.3877 27.9449C28.3059 25.6487 30.2818 22.3625 30.9419 18.7077C31.6019 15.0529 30.9004 11.2828 28.9698 8.11035Z" fill="#F9AF15"/>
</svg>
