<svg width="110" height="47" viewBox="0 0 110 47" fill="none" xmlns="http://www.w3.org/2000/svg">
<path d="M6.8125 24.9341L8.38037 26.5024L13.0329 21.8485L8.99892 27.1211L10.4565 28.5765L14.7594 24.2723L11.0294 29.1522L11.7689 29.8919L15.3834 26.2764L13.1136 31.237L13.7052 31.8261L18.0081 27.522L14.2781 32.4018L15.4237 33.5478L19.5626 30.5725L16.0046 34.1289L17.4138 35.5412L20.6248 32.3292L18.6079 36.7356L19.4738 37.6018L24.484 33.9971L20.1811 38.3013L21.1869 39.3074L29.2818 31.2101L14.9074 16.8368L6.8125 24.9341ZM43.9574 2.15678C42.2604 0.45931 39.3856 0.338254 37.8123 2.15678C36.664 3.50184 34.6658 6.40717 33.5094 7.72802C31.9907 9.48554 30.3468 11.1308 28.5906 12.6509C27.3306 13.906 25.6248 14.6106 23.8467 14.6106C22.0685 14.6106 20.3627 13.906 19.1027 12.6509L16.3031 15.4406L30.6748 29.8193L33.4664 27.027C32.2117 25.7666 31.5073 24.0603 31.5073 22.2816C31.5073 20.5029 32.2117 18.7966 33.4664 17.5362C34.9855 15.7799 36.6294 14.1356 38.3851 12.616C39.7083 11.4512 42.6235 9.45239 43.9574 8.31178C45.7754 6.73537 45.6544 3.85425 43.9574 2.15678ZM42.5374 6.9721C42.2019 7.30749 41.7744 7.53583 41.3091 7.62826C40.8439 7.72069 40.3616 7.67305 39.9234 7.49137C39.4852 7.30969 39.1106 7.00213 38.8471 6.60756C38.5836 6.213 38.443 5.74914 38.443 5.27463C38.443 4.80012 38.5836 4.33626 38.8471 3.9417C39.1106 3.54713 39.4852 3.23957 39.9234 3.05789C40.3616 2.87621 40.8439 2.82858 41.3091 2.921C41.7744 3.01343 42.2019 3.24177 42.5374 3.57716C42.7607 3.79983 42.9379 4.06439 43.0588 4.35567C43.1796 4.64696 43.2419 4.95924 43.2419 5.27463C43.2419 5.59002 43.1796 5.9023 43.0588 6.19359C42.9379 6.48487 42.7607 6.74943 42.5374 6.9721Z" fill="#F9AF15"/>
<path d="M41.9865 11.7338C40.3487 12.8932 37.7132 15.1314 34.4268 18.6851L40.1631 16.1375C41.9136 20.2963 42.1295 24.942 40.7723 29.2453C39.4151 33.5486 36.5732 37.2293 32.7539 39.6304C28.9346 42.0316 24.3865 42.9968 19.9215 42.3538C15.4565 41.7108 11.3653 39.5015 8.37826 36.1201C5.39118 32.7388 3.70266 28.4057 3.61412 23.8942C3.52558 19.3827 5.04279 14.9866 7.8949 11.4906C10.747 7.99464 14.7484 5.62637 19.1847 4.80858C23.621 3.99079 28.2034 4.77672 32.114 7.02607L32.3641 6.74091C32.902 6.14371 33.6415 5.12684 34.3838 4.14226C29.6489 1.27069 24.0263 0.234062 18.5791 1.22838C13.1319 2.2227 8.23767 5.17905 4.82191 9.53841C1.40615 13.8978 -0.294401 19.358 0.0418058 24.8866C0.378013 30.4152 2.72768 35.6289 6.6465 39.542C10.5653 43.455 15.7817 45.7962 21.3092 46.1227C26.8367 46.4492 32.2923 44.7385 36.6443 41.314C40.9963 37.8895 43.9431 32.9886 44.9275 27.538C45.9119 22.0875 44.8656 16.465 41.9865 11.7338Z" fill="#F9AF15"/>
<path d="M60.5029 28.72V6.58301H77.2897V12.4152H67.2047V14.605H77.0584V20.456H67.2101V28.72H60.5029Z" fill="white"/>
<path d="M79.1533 28.72V6.58301H85.8551V28.72H79.1533Z" fill="white"/>
<path d="M102.045 28.72L97.9977 21.949L93.9503 28.72H86.0518L93.4501 17.3704L86.5493 6.58301H94.4155L97.9977 12.8887L101.515 6.58301H109.449L102.548 17.3435L109.946 28.7281L102.045 28.72Z" fill="white"/>
<path d="M60.2881 40.255V31.418H63.838C65.6129 31.418 66.608 32.6366 66.608 34.0812C66.608 35.5258 65.586 36.7444 63.838 36.7444H61.388V40.255H60.2881ZM65.4677 34.0677C65.4677 33.0751 64.7524 32.3837 63.7062 32.3837H61.388V35.7652H63.7062C64.7524 35.7652 65.4677 35.0738 65.4677 34.0812V34.0677Z" fill="white"/>
<path d="M67.6641 40.255V31.418H73.4542V32.3972H68.764V35.246H73.36V36.2279H68.764V39.2758H73.4542V40.255H67.6641Z" fill="white"/>
<path d="M82.3536 40.255V32.9917L79.347 40.255H78.8978L75.9046 32.9917V40.255H74.8047V31.418H76.3699L79.1103 38.0706L81.8668 31.418H83.4428V40.255H82.3536Z" fill="white"/>
<path d="M84.7637 35.8437C84.7637 33.2343 86.5252 31.2705 89.15 31.2705C91.7747 31.2705 93.5336 33.2316 93.5336 35.8437C93.5336 38.4558 91.7586 40.4169 89.15 40.4169C86.5413 40.4169 84.7637 38.4531 84.7637 35.8437ZM92.3933 35.8437C92.3933 33.7777 91.1212 32.2524 89.15 32.2524C87.1787 32.2524 85.9039 33.7777 85.9039 35.8437C85.9039 37.9097 87.1625 39.435 89.15 39.435C91.1374 39.435 92.3933 37.899 92.3933 35.8437Z" fill="white"/>
<path d="M101.112 40.255V36.201H95.9564V40.255H94.8564V31.418H95.9564V35.2218H101.112V31.418H102.212V40.255H101.112Z" fill="white"/>
<path d="M106.074 40.255V32.3972H103.279V31.418H109.986V32.3972H107.173V40.255H106.074Z" fill="white"/>
</svg>
