<svg width="28" height="20" viewBox="0 0 28 20" fill="none" xmlns="http://www.w3.org/2000/svg">
<path d="M18.721 18.9645C18.8037 19.0472 18.7862 19.1833 18.6967 19.2463C18.6823 19.2564 18.666 19.2647 18.648 19.2705C10.948 21.7365 2.616 17.7675 0.054 10.3285C-0.018 10.1185 -0.018 9.88449 0.054 9.67349C0.797 7.51649 2.044 5.62649 3.642 4.10049C3.65296 4.09007 3.66509 4.08158 3.67795 4.07501C3.73664 4.04505 3.8106 4.05509 3.859 4.10349L8.161 8.40549C8.191 8.43549 8.202 8.47749 8.192 8.51849C7.076 12.8635 11.14 16.9135 15.468 15.8125C15.517 15.7995 15.563 15.8085 15.599 15.8445C15.957 16.2015 18.044 18.2875 18.721 18.9645Z" fill="#C5C5C5"/>
<path d="M22.679 17.2665C25.085 15.5745 26.96 13.1875 27.945 10.3255C28.017 10.1155 28.017 9.88549 27.945 9.67549C25.953 3.88849 20.349 0.000488281 13.999 0.000488281C11.52 0.000488281 9.158 0.597488 7.078 1.66549L10.528 5.11549C11.509 4.41649 12.705 4.00049 13.999 4.00049C17.308 4.00049 19.999 6.69149 19.999 10.0005C19.999 11.2945 19.583 12.4905 18.884 13.4715L22.679 17.2665Z" fill="#C5C5C5"/>
<path d="M18.721 18.9645C18.8037 19.0472 18.7862 19.1833 18.6967 19.2463L22.679 17.2665L18.884 13.4715L15.468 15.8125C15.517 15.7995 15.563 15.8085 15.599 15.8445C15.957 16.2015 18.044 18.2875 18.721 18.9645Z" fill="#C5C5C5"/>
<path d="M3.67795 4.07501C3.73664 4.04505 3.8106 4.05509 3.859 4.10349L8.161 8.40549C8.191 8.43549 8.202 8.47749 8.192 8.51849L10.528 5.11549L7.078 1.66549L3.67795 4.07501Z" fill="#C5C5C5"/>
</svg>
