<svg width="70" height="70" viewBox="0 0 70 70" fill="none" xmlns="http://www.w3.org/2000/svg">
<rect width="70" height="70" rx="35" fill="#2482DA"/>
<path d="M46.0833 37.8424C45.5386 37.1534 45.6961 36.8515 46.0833 36.2413C46.0898 36.2347 50.572 30.0404 51.038 27.9407C51.2677 27.1729 51.038 26.6152 49.9289 26.6152H46.2539C45.3155 26.6152 44.8889 27.1007 44.6592 27.6388C44.6592 27.6388 42.7889 32.1139 40.1442 35.0142C39.2911 35.8541 38.8973 36.1232 38.4314 36.1232C38.2017 36.1232 37.8473 35.8541 37.8473 35.0864V27.9275C37.8473 27.0089 37.5848 26.6021 36.8105 26.6021H31.0355C30.4514 26.6021 30.097 27.0286 30.097 27.4288C30.097 28.3015 31.4227 28.4984 31.5605 30.9525V36.2675C31.5605 37.429 31.3505 37.6455 30.878 37.6455C29.6311 37.6455 26.5992 33.1507 24.8011 28.0063C24.4336 27.0089 24.0792 26.6021 23.1342 26.6021H19.4592C18.4092 26.6021 18.1992 27.0876 18.1992 27.6257C18.1992 28.5771 19.4461 33.3279 24.007 39.6009C27.0455 43.8792 31.3242 46.202 35.2158 46.202C37.552 46.202 37.8408 45.6837 37.8408 44.7978C37.8408 40.7098 37.6308 40.3227 38.7989 40.3227C39.3436 40.3227 40.2755 40.5917 42.4608 42.6587C44.9545 45.1062 45.368 46.202 46.7658 46.202H50.4408C51.4908 46.202 52.0158 45.6837 51.7139 44.6732C51.0117 42.534 46.2933 38.1311 46.0833 37.8424Z" fill="white"/>
</svg>
