<svg width="40" height="41" viewBox="0 0 40 41" fill="none" xmlns="http://www.w3.org/2000/svg">
<rect y="0.5" width="40" height="40" rx="20" fill="#43C560"/>
<path d="M19.6462 10.5C14.3209 10.5 10 14.8209 10 20.1462C10 22.2785 10.6902 24.2426 11.8574 25.8418L10.6285 29.4781L14.4611 28.2828C15.9594 29.2368 17.7383 29.7923 19.6462 29.7923C24.9715 29.7923 29.2923 25.4715 29.2923 20.1462C29.2923 14.8209 24.9715 10.5 19.6462 10.5ZM24.0624 25.32C22.3116 26.0214 20.2242 25.3424 17.9403 23.6085C15.6564 21.8745 14.1525 19.4335 14.0515 17.621C13.9505 15.8085 15.4263 14.8938 16.2288 14.8994C17.0312 14.905 17.9122 17.4695 17.9234 17.8623C17.9347 18.2607 16.9414 18.9678 16.9021 19.3044C16.8629 19.6411 18.2545 21.3021 18.8437 21.7511C19.4273 22.1944 20.6338 23.0473 21.2567 22.9688C21.8739 22.8846 22.2836 21.6444 22.6764 21.5659C23.0692 21.4873 25.2128 22.5535 25.426 22.8285C25.6393 23.109 25.6168 24.7027 24.0624 25.32Z" fill="white"/>
</svg>
