<svg width="70" height="71" viewBox="0 0 70 71" fill="none" xmlns="http://www.w3.org/2000/svg">
<rect y="0.5" width="70" height="70" rx="35" fill="#FF2600"/>
<g clip-path="url(#clip0_469_11606)">
<path d="M50.2526 43.3434C50.0706 44.0148 49.716 44.6269 49.224 45.1188C48.7321 45.6107 48.1199 45.9654 47.4484 46.1475C44.9601 46.8286 34.9987 46.8286 34.9987 46.8286C34.9987 46.8286 25.0392 46.8286 22.5495 46.1734C21.2128 45.8067 20.111 44.7061 19.7452 43.3434C19.0908 40.8542 19.0908 35.6908 19.0908 35.6908C19.0908 35.6908 19.0908 30.5024 19.7462 28.0391C19.9283 27.3681 20.2829 26.7565 20.7746 26.2649C21.2664 25.7733 21.8783 25.419 22.5495 25.237C25.0656 24.5554 34.9992 24.5554 34.9992 24.5554C34.9992 24.5554 44.9586 24.5554 47.4484 25.2106C48.1199 25.3928 48.7321 25.7475 49.2241 26.2394C49.7162 26.7313 50.0709 27.3434 50.2531 28.0148C50.908 30.5024 50.908 35.6659 50.908 35.6659C50.908 35.6659 50.9344 40.8542 50.2526 43.3434ZM31.8276 30.9229V40.4611L40.1095 35.6908L31.8276 30.9229Z" fill="white"/>
</g>
<defs>
<clipPath id="clip0_469_11606">
<rect width="31.8182" height="22.2727" fill="white" transform="matrix(1 0 0 -1 19.0908 46.8286)"/>
</clipPath>
</defs>
</svg>
