<svg width="25" height="25" viewBox="0 0 25 25" fill="none" xmlns="http://www.w3.org/2000/svg">
<path d="M15.8135 2.05694C16.265 2.14892 16.7081 2.27434 17.1429 2.4332C17.26 2.475 17.377 2.49173 17.4857 2.49173C17.8954 2.49173 18.2801 2.24089 18.4306 1.83119C18.6229 1.3128 18.3553 0.735874 17.8369 0.543566C17.3102 0.351258 16.7667 0.192395 16.2148 0.0836997C15.6714 -0.0249959 15.1446 0.326175 15.0275 0.869653C14.9189 1.41313 15.27 1.94825 15.8135 2.05694Z" fill="#F9AF15"/>
<path d="M9.43062 1.87303C9.58112 2.27436 9.96573 2.5252 10.3671 2.5252C10.4841 2.5252 10.6012 2.50848 10.7182 2.45831C11.2784 2.24928 11.8554 2.09042 12.449 1.99008C12.9925 1.89811 13.3687 1.37972 13.2768 0.836237C13.1848 0.292759 12.6664 -0.0834951 12.1229 0.00847813C11.4039 0.125535 10.6932 0.317843 10.0159 0.57704C9.49751 0.777709 9.23831 1.35463 9.43062 1.87303Z" fill="#F9AF15"/>
<path d="M20.0264 4.14707C20.3609 4.43971 20.6786 4.7658 20.9713 5.10861C21.1719 5.34272 21.4478 5.45978 21.7321 5.45978C21.9579 5.45978 22.192 5.38453 22.3843 5.2173C22.8024 4.85777 22.8609 4.22232 22.5014 3.80426C22.1502 3.3862 21.7572 2.99322 21.3475 2.63369C20.9295 2.2658 20.294 2.3076 19.9345 2.72566C19.5666 3.15209 19.6084 3.77918 20.0264 4.14707Z" fill="#F9AF15"/>
<path d="M22.6349 8.01838C22.7854 8.43644 22.9025 8.87122 22.9861 9.31436C23.078 9.79095 23.4961 10.1254 23.9727 10.1254C24.0312 10.1254 24.0981 10.117 24.165 10.1087C24.7085 10.0083 25.068 9.48159 24.9593 8.93811C24.859 8.40299 24.7168 7.87623 24.5329 7.35784C24.3489 6.83108 23.7804 6.55516 23.2536 6.73911C22.7352 6.92306 22.4593 7.49998 22.6349 8.01838Z" fill="#F9AF15"/>
<path d="M24.1727 11.8563C23.6292 11.756 23.1025 12.1239 23.0105 12.6674C22.9101 13.2192 22.7596 13.7627 22.5673 14.2811C22.375 14.7995 22.6342 15.3764 23.1526 15.5771C23.2697 15.6189 23.3867 15.644 23.5038 15.644C23.9135 15.644 24.2897 15.3931 24.4402 14.9918C24.6827 14.3563 24.8583 13.6875 24.9837 13.0186C25.0841 12.4751 24.7162 11.9567 24.1727 11.8563Z" fill="#F9AF15"/>
<path d="M23.4289 17.1907L19.8587 15.1255C19.2901 14.7994 18.6296 14.7074 17.9941 14.883C17.3587 15.0502 16.8235 15.4599 16.4975 16.0285L16.3553 16.271C16.1379 16.6388 15.8369 16.8646 15.4189 16.9482C15.0008 17.0318 14.6329 16.9482 14.2901 16.6974C13.1948 15.8696 12.1162 14.9332 11.0961 13.9131C10.0761 12.893 9.1396 11.8144 8.31184 10.7108C8.05264 10.3679 7.96903 10 8.061 9.58199C8.14461 9.16393 8.37037 8.85457 8.73826 8.64554L8.98073 8.50339C10.1597 7.82614 10.561 6.31276 9.88374 5.14219L7.81016 1.5636C7.1998 0.501722 5.92053 0.0585786 4.77505 0.510084L4.73324 0.526806C2.96067 1.22079 1.75665 1.72246 1.2299 2.24921C-0.250036 3.72915 -0.400538 6.27095 0.811837 9.39804C1.92388 12.2659 4.06435 15.3679 6.84863 18.1522C9.63291 20.9365 12.7349 23.077 15.6028 24.189C16.9991 24.7325 18.2868 25 19.4072 25C20.7951 25 21.9322 24.5903 22.76 23.771C23.2868 23.2442 23.7884 22.0402 24.4824 20.2676L24.4991 20.2258C24.9423 19.0803 24.4908 17.8011 23.4289 17.1907Z" fill="#161616"/>
</svg>
